<svg width="240" height="121" viewBox="0 0 240 121" fill="none" xmlns="http://www.w3.org/2000/svg">
<g clip-path="url(#clip0_1_201)">
<g filter="url(#filter0_d_1_201)">
<path d="M240 120.762H177.348C177.348 89.2269 151.535 62.8047 120 62.8047C88.4651 62.8047 62.7104 89.2269 62.7104 120.762H0C0 54.5964 53.8273 -0.00109863 120 -0.00109863C186.173 -0.00109863 240 54.5964 240 120.762Z" fill="#F5F5F5"/>
<path d="M0.501029 120.262C0.771382 54.5936 54.2743 0.498901 120 0.498901C185.726 0.498901 239.229 54.5936 239.499 120.262H177.846C177.575 88.6787 151.651 62.3047 120 62.3047C88.3483 62.3047 62.483 88.6794 62.2126 120.262H0.501029Z" stroke="black" stroke-opacity="0.03"/>
<path d="M120.029 7.8114C107.669 7.8114 95.7636 9.81397 84.6211 13.5037L100.003 61.3379C106.297 59.2106 113.031 58.059 120.029 58.059C127.651 58.059 134.957 59.4234 141.72 61.9247L157.726 14.2886C145.93 10.1 133.248 7.8114 120.029 7.8114V7.8114Z" fill="#FFF7E1"/>
<path d="M232.987 120.762C232.987 97.6114 225.982 76.0746 213.988 58.1395L173.658 88.2881C179.417 97.7654 182.739 108.879 182.739 120.755H232.987V120.762Z" fill="#05945B"/>
<path d="M7.07812 120.762H57.3257C57.3257 108.797 60.6926 97.611 66.5316 88.0823L26.5903 57.3689C14.2815 75.4507 7.07812 97.2809 7.07812 120.754V120.762Z" fill="#FF725E"/>
<path d="M26.5903 57.3759L66.5317 88.0893C74.1532 75.6631 85.9705 66.0757 100.01 61.337L84.6208 13.5028C60.788 21.3884 40.4469 37.0055 26.583 57.3759H26.5903Z" fill="#FF725E"/>
<path d="M157.726 14.288L141.72 61.9241C155.1 66.8755 166.345 76.2575 173.658 88.2949L213.988 58.1464C200.557 38.062 180.869 22.5036 157.726 14.288V14.288Z" fill="#BBE2CE"/>
<g opacity="0.5">
<path d="M7.07812 120.761H57.3257C57.3257 108.797 60.6926 97.6101 66.5316 88.0814L26.5903 57.368C14.2815 75.4498 7.07812 97.28 7.07812 120.753V120.761Z" fill="#80392F"/>
</g>
<g opacity="0.3">
<path d="M26.5913 57.3759L66.5326 88.0893C74.1541 75.6631 85.9715 66.0757 100.011 61.337L84.6218 13.5028C60.789 21.3884 40.4479 37.0055 26.584 57.3759H26.5913Z" fill="#FF725E"/>
</g>
<path d="M213.988 58.1395C213.988 58.1395 214.846 59.4085 216.431 61.9026C217.964 64.4259 220.186 68.2037 222.6 73.3531C223.186 74.6442 223.832 76.0012 224.419 77.4756C224.72 78.2092 225.035 78.9574 225.35 79.7276C225.644 80.5052 225.937 81.3047 226.238 82.1189C226.876 83.7401 227.397 85.4859 228.006 87.2831C228.27 88.1927 228.541 89.1243 228.82 90.0705C228.959 90.5473 229.092 91.0241 229.231 91.5083C229.356 91.9924 229.473 92.4912 229.598 92.9827C230.632 96.9438 231.476 101.272 232.092 105.908C232.708 110.551 233.082 115.51 233.097 120.755V120.872H232.979C218.352 120.879 201.459 120.894 182.732 120.901H182.585V120.755C182.563 114.167 181.551 107.309 179.24 100.619C176.966 93.929 173.445 87.4078 168.721 81.5688C164.004 75.7298 158.092 70.573 151.248 66.5899C147.822 64.6093 144.155 62.9589 140.333 61.6091C136.504 60.2961 132.499 59.3352 128.398 58.785C120.197 57.692 111.578 58.1908 103.282 60.5088C99.13 61.6532 95.0735 63.2743 91.1931 65.3062C87.3053 67.3308 83.5936 69.7735 80.1827 72.6343C73.3167 78.3045 67.5878 85.5739 63.612 93.8336C59.6508 102.101 57.5016 111.365 57.5089 120.762V120.953H57.3182C53.3644 120.953 49.1025 120.953 44.8186 120.953C31.8863 120.953 19.13 120.953 7.0706 120.953H6.87988V120.762C6.90922 110.58 8.27361 100.553 10.8483 91.0241C13.4671 81.5028 17.2888 72.5022 22.0348 64.2572C26.8322 56.0342 32.5245 48.5668 38.8843 42.0309C42.0312 38.7227 45.4201 35.7445 48.8531 32.913C52.2934 30.0889 55.9098 27.5728 59.5481 25.2108C66.8982 20.5969 74.5271 16.8631 82.2659 14.1637C89.9754 11.3909 97.7583 9.59374 105.358 8.6108C120.579 6.63757 135.008 7.89926 147.551 11.0828C160.131 14.2444 170.826 19.3058 179.511 24.69C183.869 27.3748 187.712 30.2062 191.101 32.9644C194.52 35.6931 197.417 38.4513 199.97 40.9673C202.486 43.5274 204.621 45.882 206.388 47.9946C207.261 49.0583 208.061 50.0412 208.794 50.9435C209.491 51.8677 210.129 52.7113 210.694 53.4595C211.266 54.2004 211.743 54.8826 212.147 55.4694C212.55 56.0562 212.888 56.5477 213.166 56.9438C213.709 57.736 213.981 58.1468 213.981 58.1468C213.981 58.1468 213.687 57.7507 213.137 56.9658C212.858 56.5697 212.513 56.0856 212.103 55.5061C211.699 54.9192 211.222 54.2444 210.636 53.5035C208.406 50.4813 204.907 46.1534 199.867 41.07C197.307 38.5686 194.41 35.8252 190.991 33.1037C187.602 30.353 183.766 27.5362 179.401 24.8661C170.724 19.5039 160.043 14.4718 147.485 11.3322C134.964 8.17801 120.571 6.93099 105.394 8.91155C97.817 9.89449 90.0561 11.699 82.3686 14.4645C74.6591 17.1639 67.0523 20.8976 59.7242 25.4969C56.1005 27.8589 52.4988 30.3676 49.0658 33.1844C45.6475 36.0086 42.2659 38.9867 39.1337 42.2803C32.7959 48.7942 27.1256 56.247 22.3503 64.4406C17.6189 72.6636 13.8192 81.6348 11.2078 91.1195C8.64038 100.619 7.28333 110.61 7.26132 120.755L7.0706 120.564C19.13 120.564 31.8863 120.564 44.8186 120.564C49.1025 120.564 53.3644 120.564 57.3182 120.564L57.1275 120.755C57.1275 111.307 59.2841 101.983 63.2745 93.6649C67.2723 85.3539 73.038 78.0478 79.9479 72.3409C83.3882 69.4654 87.122 67.008 91.0244 64.9761C94.9342 62.9369 99.0127 61.3084 103.187 60.1567C111.534 57.8241 120.197 57.3326 128.45 58.4329C132.579 58.9904 136.599 59.9587 140.45 61.279C144.294 62.6361 147.977 64.3012 151.417 66.2891C158.297 70.2943 164.239 75.4804 168.97 81.3561C173.716 87.2317 177.252 93.7896 179.526 100.516C181.837 107.243 182.849 114.131 182.864 120.755L182.717 120.608C201.437 120.623 218.338 120.63 232.965 120.637L232.847 120.755C232.847 115.524 232.473 110.573 231.872 105.937C231.27 101.301 230.434 96.9878 229.407 93.0267C229.282 92.5279 229.165 92.0364 229.04 91.5523C228.901 91.0682 228.769 90.5914 228.629 90.1145C228.358 89.1683 228.087 88.244 227.822 87.3344C227.221 85.5373 226.7 83.7914 226.069 82.1703C225.769 81.3561 225.475 80.5565 225.189 79.779C224.874 79.0087 224.566 78.2605 224.265 77.527C223.685 76.0526 223.047 74.6955 222.46 73.4045C220.076 68.2477 217.868 64.4626 216.35 61.9319C215.58 60.6702 214.964 59.7386 214.567 59.1004C214.164 58.4623 213.966 58.1395 213.966 58.1395H213.988Z" fill="#263238"/>
<path d="M14.3405 107.75L14.7953 105.894L21.3165 107.501L22.3068 103.474L23.8179 103.848L22.3655 109.731L14.3332 107.758L14.3405 107.75Z" fill="white"/>
<path d="M24.133 101.324C23.5755 101.874 22.9226 102.234 22.1891 102.41C21.4556 102.586 20.7 102.556 19.9225 102.314C19.1449 102.072 18.5067 101.669 18.0079 101.104C17.5018 100.539 17.179 99.8717 17.0323 99.1015C16.8856 98.3313 16.9369 97.539 17.1937 96.7175C17.4504 95.8959 17.8539 95.2137 18.4187 94.6709C18.9762 94.1281 19.6217 93.7613 20.3626 93.5852C21.1035 93.4019 21.859 93.4312 22.6292 93.6733C23.4068 93.9153 24.045 94.3188 24.5438 94.8909C25.0499 95.4631 25.3727 96.1306 25.5194 96.8935C25.6661 97.6564 25.6147 98.4486 25.358 99.2702C25.1013 100.092 24.6978 100.774 24.133 101.324V101.324ZM23.8762 97.4217C23.7809 96.9815 23.5755 96.5928 23.2527 96.2553C22.9373 95.9179 22.5339 95.6758 22.0424 95.5218C21.5509 95.3677 21.0815 95.3384 20.634 95.4338C20.1865 95.5291 19.7904 95.7272 19.4603 96.0426C19.1302 96.3507 18.8882 96.7395 18.7415 97.2016C18.5947 97.6711 18.5727 98.1259 18.6681 98.566C18.7635 99.0061 18.9689 99.3949 19.2843 99.7323C19.5997 100.07 20.0031 100.312 20.4946 100.466C20.9861 100.62 21.4556 100.649 21.903 100.554C22.3505 100.459 22.7466 100.26 23.0767 99.9524C23.4068 99.6443 23.6488 99.2555 23.7956 98.7934C23.9423 98.3239 23.9643 97.8691 23.8689 97.429L23.8762 97.4217Z" fill="white"/>
<path d="M23.8767 79.2596L30.5299 84.8712L29.7597 86.7784L23.884 86.3677L28.3733 90.2114L27.6031 92.1039L18.918 91.5244L19.6662 89.6833L25.7546 90.1307L21.0966 86.1403L21.7641 84.4971L27.9038 84.9446L23.1945 80.9615L23.884 79.267L23.8767 79.2596Z" fill="white"/>
<path d="M101.192 25.2413L100.135 20.3926L98.6169 24.9039L97.7733 25.0872L94.5677 21.7056L95.5874 26.4516L93.8342 26.8257L92.0957 18.7348L93.6435 18.4047L97.7513 22.7839L99.6512 17.121L101.184 16.7909L102.945 24.8745L101.192 25.2486V25.2413Z" fill="white"/>
<path d="M110.874 22.3733L111.058 23.8991L104.698 24.6547L103.715 16.439L109.921 15.6981L110.104 17.2239L105.783 17.7374L105.996 19.5199L109.811 19.0651L109.987 20.5468L106.172 21.0016L106.4 22.9015L110.867 22.366L110.874 22.3733Z" fill="white"/>
<path d="M112.085 15.5073L115.841 15.3533C116.736 15.3166 117.536 15.456 118.24 15.7714C118.944 16.0868 119.494 16.5489 119.905 17.1504C120.316 17.7593 120.536 18.4708 120.565 19.2997C120.602 20.1286 120.44 20.8548 120.081 21.493C119.722 22.1312 119.208 22.6373 118.533 23.0041C117.858 23.3709 117.074 23.5763 116.171 23.6129L112.416 23.767L112.078 15.5L112.085 15.5073ZM116.017 22.0505C116.846 22.0138 117.492 21.7571 117.968 21.2803C118.445 20.7961 118.665 20.1653 118.629 19.3804C118.599 18.5955 118.328 17.9793 117.814 17.5392C117.301 17.0991 116.633 16.8937 115.812 16.9304L114.066 17.0037L114.271 22.1312L116.017 22.0578V22.0505Z" fill="white"/>
<path d="M122.222 15.2433L124.137 15.2873L123.961 23.5543L122.046 23.5103L122.222 15.2433V15.2433Z" fill="white"/>
<path d="M126.807 22.7764C126.198 22.0796 125.934 21.1186 126.022 19.9083L126.36 15.287L128.267 15.4264L127.937 19.9743C127.827 21.4487 128.392 22.2336 129.617 22.3216C130.211 22.3657 130.68 22.219 131.025 21.8815C131.363 21.5441 131.561 21.0013 131.619 20.2384L131.949 15.6904L133.835 15.8298L133.497 20.4511C133.409 21.6615 133.013 22.5711 132.309 23.1726C131.605 23.7741 130.666 24.0381 129.485 23.9501C128.304 23.8621 127.409 23.4733 126.8 22.7691L126.807 22.7764Z" fill="white"/>
<path d="M142.344 25.5123L143.173 20.6196L140.085 24.2359L139.234 24.0892L137.517 19.754L136.696 24.544L134.928 24.2433L136.329 16.0936L137.891 16.3577L140.077 21.9473L143.95 17.3993L145.498 17.6634L144.126 25.8204L142.359 25.5196L142.344 25.5123Z" fill="white"/>
<path d="M219.453 87.3276L211.758 90.3644L211.054 88.5819L214.208 87.3349L212.829 83.8359L209.675 85.0829L208.971 83.3004L216.666 80.2635L217.37 82.0461L214.333 83.2417L215.712 86.7407L218.749 85.545L219.453 87.3276Z" fill="white"/>
<path d="M220.165 89.4706L220.781 91.2824L212.947 93.9452L212.331 92.1333L220.165 89.4706Z" fill="white"/>
<path d="M219.218 99.8947L219.702 101.575L216.482 102.506C216.035 102.169 215.639 101.743 215.301 101.222C214.964 100.709 214.707 100.159 214.546 99.5866C214.304 98.7651 214.267 97.9655 214.428 97.21C214.59 96.4471 214.927 95.7942 215.44 95.2368C215.954 94.6793 216.607 94.2905 217.392 94.0631C218.177 93.8357 218.939 93.821 219.673 94.0117C220.407 94.2025 221.045 94.5839 221.588 95.1487C222.13 95.7136 222.526 96.4104 222.769 97.2393C222.974 97.9362 223.04 98.6037 222.967 99.2345C222.893 99.8727 222.695 100.445 222.358 100.958L220.927 100.093C221.36 99.3519 221.463 98.5817 221.228 97.7748C221.081 97.2687 220.847 96.8505 220.517 96.5131C220.194 96.183 219.805 95.963 219.35 95.8529C218.903 95.7429 218.426 95.7649 217.927 95.9116C217.436 96.051 217.025 96.2931 216.71 96.6231C216.387 96.9532 216.174 97.3494 216.071 97.7968C215.969 98.2516 215.991 98.7211 216.137 99.2272C216.291 99.7554 216.541 100.203 216.893 100.555L219.218 99.8801V99.8947Z" fill="white"/>
<path d="M225.717 109.987L217.634 111.755L217.223 109.884L220.539 109.158L219.739 105.49L216.423 106.216L216.013 104.346L224.096 102.578L224.507 104.449L221.324 105.145L222.123 108.813L225.307 108.116L225.717 109.987Z" fill="white"/>
<path d="M14.3405 107.75L14.7953 105.894L21.3165 107.501L22.3068 103.474L23.8179 103.848L22.3655 109.731L14.3332 107.758L14.3405 107.75Z" fill="white"/>
<path d="M24.133 101.324C23.5755 101.874 22.9226 102.234 22.1891 102.41C21.4556 102.586 20.7 102.556 19.9225 102.314C19.1449 102.072 18.5067 101.669 18.0079 101.104C17.5018 100.539 17.179 99.8717 17.0323 99.1015C16.8856 98.3313 16.9369 97.539 17.1937 96.7175C17.4504 95.8959 17.8539 95.2137 18.4187 94.6709C18.9762 94.1281 19.6217 93.7613 20.3626 93.5852C21.1035 93.4019 21.859 93.4312 22.6292 93.6733C23.4068 93.9153 24.045 94.3188 24.5438 94.8909C25.0499 95.4631 25.3727 96.1306 25.5194 96.8935C25.6661 97.6564 25.6147 98.4486 25.358 99.2702C25.1013 100.092 24.6978 100.774 24.133 101.324V101.324ZM23.8762 97.4217C23.7809 96.9815 23.5755 96.5928 23.2527 96.2553C22.9373 95.9179 22.5339 95.6758 22.0424 95.5218C21.5509 95.3677 21.0815 95.3384 20.634 95.4338C20.1865 95.5291 19.7904 95.7272 19.4603 96.0426C19.1302 96.3507 18.8882 96.7395 18.7415 97.2016C18.5947 97.6711 18.5727 98.1259 18.6681 98.566C18.7635 99.0061 18.9689 99.3949 19.2843 99.7323C19.5997 100.07 20.0031 100.312 20.4946 100.466C20.9861 100.62 21.4556 100.649 21.903 100.554C22.3505 100.459 22.7466 100.26 23.0767 99.9524C23.4068 99.6443 23.6488 99.2555 23.7956 98.7934C23.9423 98.3239 23.9643 97.8691 23.8689 97.429L23.8762 97.4217Z" fill="white"/>
<path d="M23.8767 79.2596L30.5299 84.8712L29.7597 86.7784L23.884 86.3677L28.3733 90.2114L27.6031 92.1039L18.918 91.5244L19.6662 89.6833L25.7546 90.1307L21.0966 86.1403L21.7641 84.4971L27.9038 84.9446L23.1945 80.9615L23.884 79.267L23.8767 79.2596Z" fill="white"/>
<path d="M101.192 25.2413L100.135 20.3926L98.6169 24.9039L97.7733 25.0872L94.5677 21.7056L95.5874 26.4516L93.8342 26.8257L92.0957 18.7348L93.6435 18.4047L97.7513 22.7839L99.6512 17.121L101.184 16.7909L102.945 24.8745L101.192 25.2486V25.2413Z" fill="#262626"/>
<path d="M110.874 22.3733L111.058 23.8991L104.698 24.6547L103.715 16.439L109.921 15.6981L110.104 17.2239L105.783 17.7374L105.996 19.5199L109.811 19.0651L109.987 20.5468L106.172 21.0016L106.4 22.9015L110.867 22.366L110.874 22.3733Z" fill="#262626"/>
<path d="M112.085 15.5073L115.841 15.3533C116.736 15.3166 117.536 15.456 118.24 15.7714C118.944 16.0868 119.494 16.5489 119.905 17.1504C120.316 17.7593 120.536 18.4708 120.565 19.2997C120.602 20.1286 120.44 20.8548 120.081 21.493C119.722 22.1312 119.208 22.6373 118.533 23.0041C117.858 23.3709 117.074 23.5763 116.171 23.6129L112.416 23.767L112.078 15.5L112.085 15.5073ZM116.017 22.0505C116.846 22.0138 117.492 21.7571 117.968 21.2803C118.445 20.7961 118.665 20.1653 118.629 19.3804C118.599 18.5955 118.328 17.9793 117.814 17.5392C117.301 17.0991 116.633 16.8937 115.812 16.9304L114.066 17.0037L114.271 22.1312L116.017 22.0578V22.0505Z" fill="#262626"/>
<path d="M122.222 15.2433L124.137 15.2873L123.961 23.5543L122.046 23.5103L122.222 15.2433V15.2433Z" fill="#262626"/>
<path d="M126.807 22.7764C126.198 22.0796 125.934 21.1186 126.022 19.9083L126.36 15.287L128.267 15.4264L127.937 19.9743C127.827 21.4487 128.392 22.2336 129.617 22.3216C130.211 22.3657 130.68 22.219 131.025 21.8815C131.363 21.5441 131.561 21.0013 131.619 20.2384L131.949 15.6904L133.835 15.8298L133.497 20.4511C133.409 21.6615 133.013 22.5711 132.309 23.1726C131.605 23.7741 130.666 24.0381 129.485 23.9501C128.304 23.8621 127.409 23.4733 126.8 22.7691L126.807 22.7764Z" fill="#262626"/>
<path d="M142.344 25.5123L143.173 20.6196L140.085 24.2359L139.234 24.0892L137.517 19.754L136.696 24.544L134.928 24.2433L136.329 16.0936L137.891 16.3577L140.077 21.9473L143.95 17.3993L145.498 17.6634L144.126 25.8204L142.359 25.5196L142.344 25.5123Z" fill="#262626"/>
<path d="M219.453 87.3276L211.758 90.3644L211.054 88.5819L214.208 87.3349L212.829 83.8359L209.675 85.0829L208.971 83.3004L216.666 80.2635L217.37 82.0461L214.333 83.2417L215.712 86.7407L218.749 85.545L219.453 87.3276Z" fill="white"/>
<path d="M220.165 89.4706L220.781 91.2824L212.947 93.9452L212.331 92.1333L220.165 89.4706Z" fill="white"/>
<path d="M219.218 99.8947L219.702 101.575L216.482 102.506C216.035 102.169 215.639 101.743 215.301 101.222C214.964 100.709 214.707 100.159 214.546 99.5866C214.304 98.7651 214.267 97.9655 214.428 97.21C214.59 96.4471 214.927 95.7942 215.44 95.2368C215.954 94.6793 216.607 94.2905 217.392 94.0631C218.177 93.8357 218.939 93.821 219.673 94.0117C220.407 94.2025 221.045 94.5839 221.588 95.1487C222.13 95.7136 222.526 96.4104 222.769 97.2393C222.974 97.9362 223.04 98.6037 222.967 99.2345C222.893 99.8727 222.695 100.445 222.358 100.958L220.927 100.093C221.36 99.3519 221.463 98.5817 221.228 97.7748C221.081 97.2687 220.847 96.8505 220.517 96.5131C220.194 96.183 219.805 95.963 219.35 95.8529C218.903 95.7429 218.426 95.7649 217.927 95.9116C217.436 96.051 217.025 96.2931 216.71 96.6231C216.387 96.9532 216.174 97.3494 216.071 97.7968C215.969 98.2516 215.991 98.7211 216.137 99.2272C216.291 99.7554 216.541 100.203 216.893 100.555L219.218 99.8801V99.8947Z" fill="white"/>
<path d="M225.717 109.987L217.634 111.755L217.223 109.884L220.539 109.158L219.739 105.49L216.423 106.216L216.013 104.346L224.096 102.578L224.507 104.449L221.324 105.145L222.123 108.813L225.307 108.116L225.717 109.987Z" fill="white"/>
</g>
<path d="M128.773 111.599C130.221 105.506 126.455 99.392 120.362 97.9437C114.268 96.4954 108.155 100.261 106.706 106.355C105.258 112.448 109.024 118.562 115.117 120.01C121.211 121.458 127.324 117.693 128.773 111.599Z" fill="#263238"/>
<path d="M28.6513 79.0883C28.0938 80.592 28.886 82.2572 30.4044 82.7706L117.74 115.391L122.559 103.933L32.1723 77.3644C30.7272 76.9096 29.1794 77.6652 28.6586 79.0883H28.6513Z" fill="#263238"/>
<path d="M128.773 111.599C130.221 105.506 126.455 99.392 120.362 97.9437C114.268 96.4954 108.155 100.261 106.706 106.355C105.258 112.448 109.024 118.562 115.117 120.01C121.211 121.458 127.324 117.693 128.773 111.599Z" fill="#263238"/>
<path d="M28.6513 79.0883C28.0938 80.592 28.886 82.2572 30.4044 82.7706L117.74 115.391L122.559 103.933L32.1723 77.3644C30.7272 76.9096 29.1794 77.6652 28.6586 79.0883H28.6513Z" fill="#263238"/>
<path d="M98.036 105.027C97.9847 105.13 97.2291 104.822 96.2535 104.704C95.2779 104.572 94.471 104.682 94.449 104.572C94.4196 104.477 95.2485 104.191 96.3048 104.33C97.3611 104.462 98.0947 104.946 98.036 105.027V105.027Z" fill="#263238"/>
<path d="M98.9382 102.064C98.8575 102.145 98.2339 101.624 97.339 101.213C96.4514 100.788 95.6519 100.641 95.6592 100.531C95.6592 100.428 96.5395 100.414 97.5004 100.868C98.4613 101.316 99.0115 102.005 98.9382 102.071V102.064Z" fill="#263238"/>
<path d="M100.274 99.9293C100.171 99.9806 99.7455 99.2837 99.034 98.6089C98.3298 97.9267 97.6183 97.5306 97.6623 97.4279C97.6916 97.3325 98.5352 97.5966 99.2981 98.3375C100.068 99.071 100.369 99.8926 100.274 99.9293V99.9293Z" fill="#263238"/>
<path d="M86.169 100.794C86.1177 100.897 85.3621 100.589 84.3865 100.471C83.4109 100.339 82.604 100.449 82.582 100.339C82.5527 100.244 83.3816 99.9578 84.4379 100.097C85.4942 100.229 86.2277 100.713 86.169 100.794V100.794Z" fill="#263238"/>
<path d="M87.0712 97.8309C86.9905 97.9115 86.367 97.3907 85.472 96.98C84.5845 96.5545 83.7849 96.4078 83.7922 96.2978C83.7922 96.1951 84.6725 96.1804 85.6334 96.6352C86.5944 97.0827 87.1445 97.7722 87.0712 97.8382V97.8309Z" fill="#263238"/>
<path d="M88.4067 95.6961C88.304 95.7475 87.8786 95.0506 87.167 94.3757C86.4628 93.6935 85.7513 93.2974 85.7953 93.1947C85.8246 93.0994 86.6682 93.3634 87.4311 94.1043C88.2013 94.8379 88.5021 95.6594 88.4067 95.6961V95.6961Z" fill="#263238"/>
<path d="M102.732 106.706C102.681 106.809 101.925 106.5 100.95 106.383C99.974 106.251 99.1671 106.361 99.1451 106.251C99.1157 106.156 99.9446 105.87 101.001 106.009C102.057 106.141 102.791 106.625 102.732 106.706V106.706Z" fill="#263238"/>
<path d="M103.634 103.736C103.554 103.816 102.93 103.296 102.035 102.885C101.148 102.459 100.348 102.313 100.355 102.203C100.355 102.1 101.236 102.085 102.197 102.54C103.157 102.987 103.708 103.677 103.634 103.743V103.736Z" fill="#263238"/>
<path d="M104.97 101.601C104.867 101.652 104.442 100.955 103.73 100.281C103.026 99.5983 102.314 99.2022 102.358 99.0995C102.388 99.0042 103.231 99.2682 103.994 100.009C104.764 100.743 105.065 101.564 104.97 101.601V101.601Z" fill="#263238"/>
</g>
<defs>
<filter id="filter0_d_1_201" x="0" y="-0.00109863" width="240" height="123.954" filterUnits="userSpaceOnUse" color-interpolation-filters="sRGB">
<feFlood flood-opacity="0" result="BackgroundImageFix"/>
<feColorMatrix in="SourceAlpha" type="matrix" values="0 0 0 0 0 0 0 0 0 0 0 0 0 0 0 0 0 0 127 0" result="hardAlpha"/>
<feOffset dy="3"/>
<feComposite in2="hardAlpha" operator="out"/>
<feColorMatrix type="matrix" values="0 0 0 0 0 0 0 0 0 0 0 0 0 0 0 0 0 0 0.25 0"/>
<feBlend mode="normal" in2="BackgroundImageFix" result="effect1_dropShadow_1_201"/>
<feBlend mode="normal" in="SourceGraphic" in2="effect1_dropShadow_1_201" result="shape"/>
</filter>
<clipPath id="clip0_1_201">
<rect width="240" height="120.954" fill="white"/>
</clipPath>
</defs>
</svg>
