<svg width="33" height="19" viewBox="0 0 33 19" fill="none" xmlns="http://www.w3.org/2000/svg">
<path d="M0.989 9.628C0.989 14.826 3.634 18.299 8.096 18.299C12.558 18.299 15.226 14.826 15.226 9.628C15.226 4.407 12.397 0.864999 8.096 0.864999C3.795 0.864999 0.989 4.407 0.989 9.628ZM3.887 9.628C3.887 5.649 5.451 3.464 8.096 3.464C10.764 3.464 12.328 5.649 12.328 9.628C12.328 13.515 10.764 15.7 8.096 15.7C5.451 15.7 3.887 13.515 3.887 9.628ZM18.6629 18L25.2409 1.21H22.4349L15.8799 18H18.6629ZM30.045 3.832V18H32.874V1.187H26.365V3.832H30.045Z" fill="#E7685A"/>
<path d="M0.489 9.628C0.489 12.3061 1.17001 14.5953 2.47939 16.2258C3.79882 17.8689 5.72249 18.799 8.096 18.799V17.799C6.00751 17.799 4.37768 16.9926 3.25911 15.5997C2.13049 14.1942 1.489 12.1479 1.489 9.628H0.489ZM8.096 18.799C10.4693 18.799 12.3983 17.8691 13.7234 16.2267C15.0388 14.5964 15.726 12.307 15.726 9.628H14.726C14.726 12.147 14.0792 14.1931 12.9451 15.5988C11.8207 16.9924 10.1847 17.799 8.096 17.799V18.799ZM15.726 9.628C15.726 6.9313 14.9954 4.62096 13.6625 2.97407C12.3221 1.31785 10.3964 0.364999 8.096 0.364999V1.365C10.0966 1.365 11.7359 2.18315 12.8852 3.60318C14.0421 5.03254 14.726 7.1037 14.726 9.628H15.726ZM8.096 0.364999C5.79537 0.364999 3.87502 1.3181 2.54026 2.97495C1.21332 4.62208 0.489 6.93224 0.489 9.628H1.489C1.489 7.10276 2.16768 5.03142 3.31899 3.6023C4.46248 2.18289 6.09564 1.365 8.096 1.365V0.364999ZM4.387 9.628C4.387 7.69305 4.76901 6.26653 5.41088 5.33824C6.03599 4.43421 6.93205 3.964 8.096 3.964V2.964C6.61495 2.964 5.40652 3.58628 4.58837 4.76951C3.78699 5.92847 3.387 7.58395 3.387 9.628H4.387ZM8.096 3.964C9.27299 3.964 10.1745 4.4355 10.8018 5.33901C11.446 6.26693 11.828 7.69296 11.828 9.628H12.828C12.828 7.58404 12.428 5.92806 11.6232 4.76874C10.8015 3.585 9.58701 2.964 8.096 2.964V3.964ZM11.828 9.628C11.828 11.515 11.4467 12.9177 10.8033 13.8344C10.176 14.7279 9.27359 15.2 8.096 15.2V16.2C9.58641 16.2 10.8 15.5796 11.6217 14.4089C12.4273 13.2613 12.828 11.628 12.828 9.628H11.828ZM8.096 15.2C6.93145 15.2 6.03448 14.7292 5.4094 13.8351C4.76823 12.9181 4.387 11.5149 4.387 9.628H3.387C3.387 11.6281 3.78777 13.2609 4.58985 14.4081C5.40802 15.5783 6.61555 16.2 8.096 16.2V15.2ZM18.6629 18V18.5H19.004L19.1284 18.1824L18.6629 18ZM25.2409 1.21L25.7064 1.39239L25.9738 0.71H25.2409V1.21ZM22.4349 1.21V0.71H22.0933L21.9691 1.02816L22.4349 1.21ZM15.8799 18L15.4141 17.8182L15.1479 18.5H15.8799V18ZM19.1284 18.1824L25.7064 1.39239L24.7753 1.02761L18.1973 17.8176L19.1284 18.1824ZM25.2409 0.71H22.4349V1.71H25.2409V0.71ZM21.9691 1.02816L15.4141 17.8182L16.3456 18.1818L22.9006 1.39184L21.9691 1.02816ZM15.8799 18.5H18.6629V17.5H15.8799V18.5ZM30.045 3.832H30.545V3.332H30.045V3.832ZM30.045 18H29.545V18.5H30.045V18ZM32.874 18V18.5H33.374V18H32.874ZM32.874 1.187H33.374V0.687H32.874V1.187ZM26.365 1.187V0.687H25.865V1.187H26.365ZM26.365 3.832H25.865V4.332H26.365V3.832ZM29.545 3.832V18H30.545V3.832H29.545ZM30.045 18.5H32.874V17.5H30.045V18.5ZM33.374 18V1.187H32.374V18H33.374ZM32.874 0.687H26.365V1.687H32.874V0.687ZM25.865 1.187V3.832H26.865V1.187H25.865ZM26.365 4.332H30.045V3.332H26.365V4.332Z" fill="black"/>
</svg>
