<svg width="36" height="38" viewBox="0 0 18 18" fill="none" xmlns="http://www.w3.org/2000/svg">
<g clip-path="url(#clip0_1187_3951)">
<path d="M17.1761 0.828714C16.626 0.278055 15.8777 0 14.9521 0C13.4108 0 11.4359 0.792367 9.3582 2.189C9.11573 2.35438 8.86871 2.52824 8.61714 2.71059C8.24161 2.98319 7.86608 3.28124 7.486 3.59291C7.2599 3.77465 7.03288 3.96789 6.80496 4.17265C6.34911 4.57368 5.89932 5.00015 5.45559 5.45207C5.01187 5.90398 4.58572 6.35832 4.17715 6.81508V6.82054C3.98166 7.04589 3.78889 7.26761 3.60249 7.4975V7.49296C3.4267 7.23065 3.26576 6.97441 3.11967 6.72422L3.11512 6.72967C2.79627 7.10586 2.49712 7.48326 2.21767 7.86188C2.37709 8.11449 2.5444 8.36801 2.71959 8.62244C2.98691 9.01136 3.27424 9.40027 3.57431 9.78555C3.75616 10.0194 3.94408 10.2502 4.13805 10.478L4.18352 10.4125C4.309 10.2308 4.43993 10.0491 4.57633 9.86733C4.70181 9.69832 4.83123 9.52749 4.96459 9.35484L4.97095 9.34666C4.78273 9.11677 4.59906 8.88505 4.42539 8.65607C4.60724 8.4289 4.7891 8.20173 4.98732 7.97728C5.43741 7.45116 5.9175 6.92231 6.4267 6.4189C6.93589 5.91549 7.456 5.42662 7.98338 4.97955C8.20797 4.78782 8.43801 4.59973 8.66079 4.42253C8.89174 4.59518 9.12361 4.77965 9.35365 4.96774C9.50641 4.84658 9.65796 4.73027 9.80829 4.61881C10.0083 4.47039 10.2075 4.32773 10.4057 4.19082L10.4812 4.13812L10.4875 4.13358C10.2596 3.94094 10.0286 3.75345 9.79465 3.5711C10.0462 3.39543 10.2966 3.22944 10.5457 3.07315C12.2206 1.99909 13.7936 1.37119 14.9521 1.37119C15.4976 1.37119 15.9232 1.52113 16.205 1.79736C16.8543 2.44616 16.7579 3.84098 15.945 5.62653C15.651 6.26283 15.3131 6.87797 14.9339 7.46751C15.2439 7.85279 15.5349 8.24353 15.8113 8.63062C16.338 7.85789 16.8005 7.04342 17.1943 6.19537C18.2764 3.82463 18.2682 1.91913 17.1761 0.828714ZM11.5823 11.5802C11.4004 11.7619 11.2143 11.9415 11.024 12.119H11.4968C11.5795 12.1188 11.6586 12.0859 11.7171 12.0275C11.7755 11.9691 11.8085 11.8899 11.8087 11.8074V11.353C11.7341 11.43 11.6587 11.5057 11.5823 11.5802ZM15.4203 9.56838L15.2903 9.37756C15.0175 8.98864 14.7357 8.59973 14.4338 8.21536C14.3428 8.09814 14.2519 7.98274 14.1564 7.86733C14.061 7.75193 13.9673 7.63653 13.8718 7.52113L13.84 7.56747C13.6973 7.77646 13.5463 7.98546 13.3908 8.19446C13.2781 8.34711 13.1617 8.50068 13.0417 8.6488C13.2326 8.8796 13.4145 9.1098 13.5872 9.33939C13.4054 9.56656 13.2181 9.79282 13.0253 10.0182C12.7371 10.3535 12.4361 10.6906 12.1233 11.0177V11.7946C12.1231 11.9599 12.0573 12.1183 11.9403 12.2352C11.8234 12.352 11.6649 12.4178 11.4995 12.418H10.6921C10.4721 12.6203 10.2511 12.8169 10.0292 13.0077C9.80283 13.1995 9.57461 13.3876 9.34911 13.5675C9.11906 13.393 8.88719 13.2104 8.65715 13.0223C8.47529 13.1658 8.29192 13.3049 8.10704 13.4393C8.03066 13.4948 7.95519 13.5502 7.87972 13.6038C7.75848 13.6911 7.63725 13.7759 7.51601 13.8582C7.63058 13.9555 7.74606 14.0518 7.86153 14.1445C7.91882 14.1917 7.97701 14.2353 8.0352 14.2844C8.0934 14.3335 8.15068 14.3753 8.20888 14.4216C8.08249 14.5125 7.95701 14.5943 7.83153 14.677L7.69968 14.7678C7.61876 14.8214 7.53874 14.8723 7.45872 14.9232C5.76929 16.0036 4.19989 16.6288 3.0442 16.6288C2.49863 16.6288 2.07309 16.4861 1.7894 16.2017C1.142 15.5538 1.23838 14.1581 2.05127 12.3744C2.34601 11.7376 2.68478 11.1222 3.06511 10.5325C2.75596 10.1454 2.46287 9.75738 2.18584 9.36847C1.66007 10.1419 1.19844 10.957 0.805564 11.8055C-0.272835 14.1754 -0.272835 16.0836 0.82375 17.174C1.36931 17.7238 2.12128 18.0018 3.04693 18.0018C4.58451 18.0018 6.55763 17.2113 8.62896 15.821C8.87537 15.6565 9.12543 15.4802 9.38093 15.2976C9.59097 15.1422 9.80374 14.9814 10.0174 14.8151L10.232 14.6479C10.3229 14.5725 10.4239 14.4961 10.5193 14.4189C10.7458 14.2372 10.9694 14.0391 11.1977 13.8373C11.6541 13.4375 12.1072 13.0135 12.557 12.5652C13.0068 12.1169 13.4327 11.6665 13.8346 11.214C13.9791 11.0323 14.1228 10.8605 14.2665 10.6888C14.3147 10.6315 14.3574 10.5743 14.4101 10.5179C14.5783 10.776 14.7366 11.0304 14.8857 11.284C15.2045 10.9072 15.5052 10.5279 15.7877 10.1463C15.6704 9.95002 15.5485 9.7592 15.4203 9.56838Z" fill="#262626"/>
<path d="M10.9469 13.6693C10.8324 13.593 10.7178 13.5148 10.6032 13.4349C10.4111 13.301 10.2189 13.1629 10.0267 13.0205C9.80033 13.2122 9.5721 13.4003 9.3466 13.5803C9.11655 13.4058 8.88469 13.2231 8.65464 13.0351C8.00178 12.4989 7.35256 11.9119 6.72152 11.2795C6.58513 11.1432 6.44874 11.0069 6.31871 10.8669C6.02792 10.8406 5.75746 10.7067 5.56046 10.4913C5.36345 10.2759 5.25413 9.99473 5.25395 9.70293V9.69566C5.15575 9.58117 5.05937 9.46668 4.96481 9.35218L4.95844 9.344C4.77113 9.11411 4.58746 8.8824 4.41288 8.65341C4.59473 8.42624 4.77659 8.19907 4.97481 7.97463C4.80568 7.74625 4.64353 7.51908 4.48835 7.29312C4.42197 7.19589 4.3565 7.09866 4.29285 7.00234C4.25102 6.94176 4.21011 6.87906 4.1701 6.81425V6.80879C3.97461 7.03415 3.78275 7.25677 3.59544 7.48667V7.49121C3.42631 7.23375 3.2687 6.98023 3.12261 6.73065C3.12235 6.72884 3.12235 6.727 3.12261 6.72519C2.87744 6.31328 2.65435 5.88863 2.4543 5.45305C1.73142 3.86468 1.60049 2.61252 2.11423 2.10729C2.31882 1.90375 2.64525 1.80743 3.06442 1.80743C3.68455 1.80743 4.51926 2.02915 5.46854 2.46077C5.90419 2.66014 6.3291 2.88216 6.74153 3.12592C7.1113 2.7988 7.48531 2.49651 7.86357 2.21906C5.12575 0.498026 2.48521 -0.227099 1.12585 1.13047C-0.233518 2.48803 0.494811 5.1341 2.20788 7.86195C2.36731 8.11456 2.53431 8.36808 2.70889 8.62251C2.98168 9.01143 3.26355 9.40034 3.56452 9.78562C3.74638 10.0195 3.93399 10.2503 4.12736 10.478C4.63838 11.0893 5.17879 11.6793 5.7486 12.2481C6.31872 12.8179 6.91247 13.364 7.5135 13.8701C7.62807 13.9674 7.74355 14.0637 7.85903 14.1564C7.91631 14.2036 7.9745 14.2472 8.0327 14.2963L8.20455 14.4335C8.07907 14.5207 7.95389 14.6059 7.82902 14.6888L7.69718 14.7797L7.57351 14.8588L7.4544 14.9351C7.84357 15.2495 8.23334 15.5445 8.62373 15.8202C8.87014 15.6557 9.12019 15.4794 9.3757 15.2968C9.58786 15.1417 9.80002 14.9808 10.0122 14.8142L10.2268 14.647C10.3177 14.5716 10.4186 14.4953 10.5141 14.4181C10.7405 14.2363 10.9642 14.0382 11.1924 13.8365C11.1133 13.7802 11.0297 13.7211 10.9469 13.6693ZM15.7924 10.1373C15.6733 9.94827 15.5488 9.75836 15.4206 9.56845L15.2905 9.37763C15.0177 8.98871 14.7359 8.5998 14.434 8.21543C14.3431 8.09821 14.2521 7.9828 14.1567 7.8674C14.0612 7.752 13.9675 7.6366 13.8721 7.5212C13.3592 6.91056 12.8188 6.32053 12.2508 5.75109C11.6828 5.18165 11.0942 4.64372 10.485 4.13728V4.13274C10.2565 3.9401 10.0255 3.75261 9.79214 3.57027C10.0437 3.39459 10.2944 3.2286 10.5441 3.07231C10.1649 2.77154 9.77123 2.47167 9.37024 2.18907C9.12565 2.35445 8.87741 2.52892 8.62918 2.71066C8.25365 2.98326 7.87812 3.28131 7.49804 3.59298C7.27194 3.77472 7.04492 3.96796 6.817 4.17272C6.93096 4.24541 7.04523 4.32023 7.15979 4.39716C7.21526 4.43351 7.27164 4.47167 7.3271 4.50984C7.54533 4.65765 7.76446 4.81424 7.98451 4.97962C8.21001 4.78698 8.43914 4.59889 8.66373 4.42079C8.89469 4.59253 9.12565 4.77699 9.35478 4.96599C9.51057 5.09503 9.66576 5.22678 9.82033 5.36127C10.3715 5.5049 10.8758 5.7891 11.284 6.18604C11.6922 6.58298 11.9903 7.07906 12.149 7.62569C12.46 7.96554 12.7573 8.30811 13.041 8.65341C13.2319 8.88421 13.4138 9.11441 13.5865 9.344C13.4047 9.57117 13.2174 9.79743 13.0246 10.0228C13.1186 10.1494 13.2095 10.2754 13.2974 10.4008C13.4483 10.6134 13.5938 10.8251 13.7311 11.0369L13.8284 11.1877L14.2576 10.6779C14.3058 10.6207 14.3485 10.5634 14.4013 10.5071C14.5695 10.7652 14.7277 11.0196 14.8768 11.2731C15.1215 11.687 15.3449 12.1131 15.546 12.5498C16.2735 14.1382 16.4008 15.3903 15.8925 15.8965C15.3842 16.4026 14.1348 16.2718 12.5454 15.5485C12.1099 15.3495 11.685 15.1281 11.2724 14.8851C10.8924 15.2059 10.5105 15.5094 10.1313 15.7938C10.7225 16.1675 11.3379 16.5014 11.9735 16.7933C13.0992 17.304 14.103 17.5603 14.9432 17.5603C15.7443 17.5603 16.398 17.3276 16.8636 16.8624C18.2339 15.5085 17.5055 12.866 15.7924 10.1373Z" fill="#262626"/>
<path d="M8.80694 8.85612H8.42141C8.39758 8.85844 8.37547 8.86954 8.35938 8.88726C8.34329 8.90498 8.33438 8.92805 8.33438 8.95198C8.33438 8.97591 8.34329 8.99898 8.35938 9.0167C8.37547 9.03442 8.39758 9.04553 8.42141 9.04785H8.80694C8.82033 9.04915 8.83383 9.04764 8.8466 9.04342C8.85936 9.03919 8.8711 9.03235 8.88106 9.02332C8.89102 9.01429 8.89897 9.00328 8.90442 8.99099C8.90986 8.97871 8.91268 8.96542 8.91268 8.95198C8.91268 8.93854 8.90986 8.92526 8.90442 8.91297C8.89897 8.90069 8.89102 8.88967 8.88106 8.88065C8.8711 8.87162 8.85936 8.86477 8.8466 8.86055C8.83383 8.85632 8.82033 8.85481 8.80694 8.85612ZM9.28795 8.47084H8.42141C8.39585 8.47084 8.37133 8.48098 8.35326 8.49905C8.33518 8.51711 8.32503 8.54161 8.32503 8.56716C8.32503 8.5927 8.33518 8.6172 8.35326 8.63526C8.37133 8.65333 8.39585 8.66348 8.42141 8.66348H9.28795C9.31351 8.66348 9.33803 8.65333 9.3561 8.63526C9.37418 8.6172 9.38433 8.5927 9.38433 8.56716C9.38433 8.54161 9.37418 8.51711 9.3561 8.49905C9.33803 8.48098 9.31351 8.47084 9.28795 8.47084ZM9.28795 8.47084H8.42141C8.39585 8.47084 8.37133 8.48098 8.35326 8.49905C8.33518 8.51711 8.32503 8.54161 8.32503 8.56716C8.32503 8.5927 8.33518 8.6172 8.35326 8.63526C8.37133 8.65333 8.39585 8.66348 8.42141 8.66348H9.28795C9.31351 8.66348 9.33803 8.65333 9.3561 8.63526C9.37418 8.6172 9.38433 8.5927 9.38433 8.56716C9.38433 8.54161 9.37418 8.51711 9.3561 8.49905C9.33803 8.48098 9.31351 8.47084 9.28795 8.47084ZM8.80694 8.85612H8.42141C8.39758 8.85844 8.37547 8.86954 8.35938 8.88726C8.34329 8.90498 8.33438 8.92805 8.33438 8.95198C8.33438 8.97591 8.34329 8.99898 8.35938 9.0167C8.37547 9.03442 8.39758 9.04553 8.42141 9.04785H8.80694C8.82033 9.04915 8.83383 9.04764 8.8466 9.04342C8.85936 9.03919 8.8711 9.03235 8.88106 9.02332C8.89102 9.01429 8.89897 9.00328 8.90442 8.99099C8.90986 8.97871 8.91268 8.96542 8.91268 8.95198C8.91268 8.93854 8.90986 8.92526 8.90442 8.91297C8.89897 8.90069 8.89102 8.88967 8.88106 8.88065C8.8711 8.87162 8.85936 8.86477 8.8466 8.86055C8.83383 8.85632 8.82033 8.85481 8.80694 8.85612ZM8.80694 8.85612H8.42141C8.39758 8.85844 8.37547 8.86954 8.35938 8.88726C8.34329 8.90498 8.33438 8.92805 8.33438 8.95198C8.33438 8.97591 8.34329 8.99898 8.35938 9.0167C8.37547 9.03442 8.39758 9.04553 8.42141 9.04785H8.80694C8.82033 9.04915 8.83383 9.04764 8.8466 9.04342C8.85936 9.03919 8.8711 9.03235 8.88106 9.02332C8.89102 9.01429 8.89897 9.00328 8.90442 8.99099C8.90986 8.97871 8.91268 8.96542 8.91268 8.95198C8.91268 8.93854 8.90986 8.92526 8.90442 8.91297C8.89897 8.90069 8.89102 8.88967 8.88106 8.88065C8.8711 8.87162 8.85936 8.86477 8.8466 8.86055C8.83383 8.85632 8.82033 8.85481 8.80694 8.85612ZM9.28795 8.47084H8.42141C8.39585 8.47084 8.37133 8.48098 8.35326 8.49905C8.33518 8.51711 8.32503 8.54161 8.32503 8.56716C8.32503 8.5927 8.33518 8.6172 8.35326 8.63526C8.37133 8.65333 8.39585 8.66348 8.42141 8.66348H9.28795C9.31351 8.66348 9.33803 8.65333 9.3561 8.63526C9.37418 8.6172 9.38433 8.5927 9.38433 8.56716C9.38433 8.54161 9.37418 8.51711 9.3561 8.49905C9.33803 8.48098 9.31351 8.47084 9.28795 8.47084ZM9.28795 8.47084H8.42141C8.39585 8.47084 8.37133 8.48098 8.35326 8.49905C8.33518 8.51711 8.32503 8.54161 8.32503 8.56716C8.32503 8.5927 8.33518 8.6172 8.35326 8.63526C8.37133 8.65333 8.39585 8.66348 8.42141 8.66348H9.28795C9.31351 8.66348 9.33803 8.65333 9.3561 8.63526C9.37418 8.6172 9.38433 8.5927 9.38433 8.56716C9.38433 8.54161 9.37418 8.51711 9.3561 8.49905C9.33803 8.48098 9.31351 8.47084 9.28795 8.47084ZM8.80694 8.85612H8.42141C8.39758 8.85844 8.37547 8.86954 8.35938 8.88726C8.34329 8.90498 8.33438 8.92805 8.33438 8.95198C8.33438 8.97591 8.34329 8.99898 8.35938 9.0167C8.37547 9.03442 8.39758 9.04553 8.42141 9.04785H8.80694C8.82033 9.04915 8.83383 9.04764 8.8466 9.04342C8.85936 9.03919 8.8711 9.03235 8.88106 9.02332C8.89102 9.01429 8.89897 9.00328 8.90442 8.99099C8.90986 8.97871 8.91268 8.96542 8.91268 8.95198C8.91268 8.93854 8.90986 8.92526 8.90442 8.91297C8.89897 8.90069 8.89102 8.88967 8.88106 8.88065C8.8711 8.87162 8.85936 8.86477 8.8466 8.86055C8.83383 8.85632 8.82033 8.85481 8.80694 8.85612ZM13.8398 7.56761C12.8212 6.32166 11.6709 5.18924 10.4091 4.19006C9.86812 3.75281 9.30055 3.3495 8.70965 2.98242L7.15479 4.39723L4.2924 7.0015L2.80664 8.35362C3.02396 8.99514 3.53406 9.70573 4.18328 10.4127C5.27987 11.6085 6.76562 12.7943 7.87676 13.6158C8.77694 14.2818 9.43071 14.7062 9.43071 14.7062C9.95847 14.3937 10.4648 14.0464 10.9465 13.6667C11.948 12.8683 12.8822 11.9891 13.7398 11.0379C14.6072 10.0865 15.1419 9.37043 15.1419 9.37043C14.7431 8.74481 14.3084 8.14286 13.8398 7.56761ZM7.65217 10.2028V8.56716C7.65168 8.45342 7.67375 8.34071 7.71708 8.23554C7.76041 8.13037 7.82415 8.03482 7.90463 7.95439C7.98511 7.87397 8.08072 7.81027 8.18596 7.76696C8.2912 7.72366 8.40398 7.70161 8.51779 7.7021H9.47981C9.59369 7.70149 9.70657 7.72345 9.81192 7.7667C9.91726 7.80995 10.013 7.87363 10.0936 7.95407C10.1741 8.03451 10.238 8.1301 10.2813 8.23533C10.3247 8.34056 10.3468 8.45334 10.3463 8.56716V8.95153C10.3469 9.06542 10.3249 9.1783 10.2816 9.28363C10.2383 9.38897 10.1745 9.48467 10.0939 9.5652C10.0133 9.64574 9.91753 9.7095 9.81213 9.75281C9.70672 9.79611 9.59377 9.8181 9.47981 9.8175H9.02517C8.58052 9.81998 8.15196 9.98406 7.81947 10.2791C7.79843 10.2896 7.77561 10.2961 7.75219 10.2982C7.73837 10.2997 7.72447 10.2962 7.71309 10.2882C7.6952 10.2819 7.67971 10.2703 7.66878 10.2548C7.65786 10.2393 7.65205 10.2208 7.65217 10.2019V10.2028ZM12.1203 11.8084C12.1201 11.9737 12.0543 12.1321 11.9374 12.2489C11.8205 12.3658 11.6619 12.4315 11.4966 12.4318H9.75168C9.71935 12.5227 9.65977 12.6016 9.58102 12.6575C9.50227 12.7134 9.4082 12.7438 9.31159 12.7443H8.84332C8.71912 12.7443 8.60001 12.695 8.51219 12.6073C8.42437 12.5195 8.37504 12.4005 8.37504 12.2764C8.37504 12.1523 8.42437 12.0332 8.51219 11.9455C8.60001 11.8577 8.71912 11.8084 8.84332 11.8084H9.31159C9.40822 11.8084 9.50245 11.8384 9.58129 11.8942C9.66012 11.9501 9.71966 12.029 9.75168 12.1201H11.4966C11.5792 12.1198 11.6584 12.0869 11.7168 12.0285C11.7753 11.9701 11.8082 11.891 11.8085 11.8084V10.8479C11.7313 10.8637 11.6527 10.8716 11.5739 10.8716H11.3402V8.53172H11.5739C11.707 8.53112 11.8391 8.55452 11.9639 8.60078V8.53172C11.9639 6.8961 10.6346 6.20823 8.9988 6.20823C7.36302 6.20823 6.03366 6.89792 6.03366 8.53172V8.60078C6.15849 8.55459 6.29062 8.5312 6.42374 8.53172H6.65833V10.8716H6.42374C6.38851 10.8716 6.3533 10.8698 6.31826 10.8661C6.02746 10.8398 5.75701 10.7058 5.56 10.4905C5.36299 10.2751 5.25367 9.99389 5.2535 9.7021V9.69483C5.25445 9.51478 5.29725 9.33743 5.37851 9.17674C5.45977 9.01605 5.57729 8.87643 5.72178 8.76888V8.53172C5.72178 7.66305 6.06708 6.82995 6.68173 6.21571C7.29637 5.60147 8.13001 5.25639 8.99926 5.25639C9.8685 5.25639 10.7021 5.60147 11.3168 6.21571C11.9314 6.82995 12.2767 7.66305 12.2767 8.53172V8.76888C12.4347 8.88668 12.5601 9.04257 12.6414 9.22197C12.7227 9.40138 12.7571 9.59845 12.7415 9.79476C12.7259 9.99108 12.6607 10.1802 12.5521 10.3445C12.4434 10.5089 12.2949 10.643 12.1203 10.7344V11.8084ZM8.42141 8.66348H9.28795C9.31351 8.66348 9.33803 8.65333 9.3561 8.63526C9.37418 8.6172 9.38433 8.5927 9.38433 8.56716C9.38433 8.54161 9.37418 8.51711 9.3561 8.49905C9.33803 8.48098 9.31351 8.47084 9.28795 8.47084H8.42141C8.39585 8.47084 8.37133 8.48098 8.35326 8.49905C8.33518 8.51711 8.32503 8.54161 8.32503 8.56716C8.32503 8.5927 8.33518 8.6172 8.35326 8.63526C8.37133 8.65333 8.39585 8.66348 8.42141 8.66348ZM8.42141 9.04785H8.80694C8.82033 9.04915 8.83383 9.04764 8.8466 9.04342C8.85936 9.03919 8.8711 9.03235 8.88106 9.02332C8.89102 9.01429 8.89897 9.00328 8.90442 8.99099C8.90986 8.97871 8.91268 8.96542 8.91268 8.95198C8.91268 8.93854 8.90986 8.92526 8.90442 8.91297C8.89897 8.90069 8.89102 8.88967 8.88106 8.88065C8.8711 8.87162 8.85936 8.86477 8.8466 8.86055C8.83383 8.85632 8.82033 8.85481 8.80694 8.85612H8.42141C8.39758 8.85844 8.37547 8.86954 8.35938 8.88726C8.34329 8.90498 8.33438 8.92805 8.33438 8.95198C8.33438 8.97591 8.34329 8.99898 8.35938 9.0167C8.37547 9.03442 8.39758 9.04553 8.42141 9.04785ZM8.80694 8.85612H8.42141C8.39758 8.85844 8.37547 8.86954 8.35938 8.88726C8.34329 8.90498 8.33438 8.92805 8.33438 8.95198C8.33438 8.97591 8.34329 8.99898 8.35938 9.0167C8.37547 9.03442 8.39758 9.04553 8.42141 9.04785H8.80694C8.82033 9.04915 8.83383 9.04764 8.8466 9.04342C8.85936 9.03919 8.8711 9.03235 8.88106 9.02332C8.89102 9.01429 8.89897 9.00328 8.90442 8.99099C8.90986 8.97871 8.91268 8.96542 8.91268 8.95198C8.91268 8.93854 8.90986 8.92526 8.90442 8.91297C8.89897 8.90069 8.89102 8.88967 8.88106 8.88065C8.8711 8.87162 8.85936 8.86477 8.8466 8.86055C8.83383 8.85632 8.82033 8.85481 8.80694 8.85612ZM9.28795 8.47084H8.42141C8.39585 8.47084 8.37133 8.48098 8.35326 8.49905C8.33518 8.51711 8.32503 8.54161 8.32503 8.56716C8.32503 8.5927 8.33518 8.6172 8.35326 8.63526C8.37133 8.65333 8.39585 8.66348 8.42141 8.66348H9.28795C9.31351 8.66348 9.33803 8.65333 9.3561 8.63526C9.37418 8.6172 9.38433 8.5927 9.38433 8.56716C9.38433 8.54161 9.37418 8.51711 9.3561 8.49905C9.33803 8.48098 9.31351 8.47084 9.28795 8.47084ZM9.28795 8.47084H8.42141C8.39585 8.47084 8.37133 8.48098 8.35326 8.49905C8.33518 8.51711 8.32503 8.54161 8.32503 8.56716C8.32503 8.5927 8.33518 8.6172 8.35326 8.63526C8.37133 8.65333 8.39585 8.66348 8.42141 8.66348H9.28795C9.31351 8.66348 9.33803 8.65333 9.3561 8.63526C9.37418 8.6172 9.38433 8.5927 9.38433 8.56716C9.38433 8.54161 9.37418 8.51711 9.3561 8.49905C9.33803 8.48098 9.31351 8.47084 9.28795 8.47084ZM8.80694 8.85612H8.42141C8.39758 8.85844 8.37547 8.86954 8.35938 8.88726C8.34329 8.90498 8.33438 8.92805 8.33438 8.95198C8.33438 8.97591 8.34329 8.99898 8.35938 9.0167C8.37547 9.03442 8.39758 9.04553 8.42141 9.04785H8.80694C8.82033 9.04915 8.83383 9.04764 8.8466 9.04342C8.85936 9.03919 8.8711 9.03235 8.88106 9.02332C8.89102 9.01429 8.89897 9.00328 8.90442 8.99099C8.90986 8.97871 8.91268 8.96542 8.91268 8.95198C8.91268 8.93854 8.90986 8.92526 8.90442 8.91297C8.89897 8.90069 8.89102 8.88967 8.88106 8.88065C8.8711 8.87162 8.85936 8.86477 8.8466 8.86055C8.83383 8.85632 8.82033 8.85481 8.80694 8.85612Z" fill="#262626"/>
</g>
<defs>
<clipPath id="clip0_1187_3951">
<rect width="18" height="18" fill="white"/>
</clipPath>
</defs>
</svg>
