<svg width="18" height="18" viewBox="0 0 18 18" fill="none" xmlns="http://www.w3.org/2000/svg">
<g clip-path="url(#clip0_1187_2458)">
<path d="M17.1771 0.828714C16.627 0.278055 15.8787 0 14.953 0C13.4118 0 11.4369 0.792367 9.35918 2.189C9.1167 2.35438 8.86968 2.52824 8.61812 2.71059C8.24259 2.98319 7.86706 3.28124 7.48698 3.59291C7.26087 3.77465 7.03386 3.96789 6.80593 4.17265C6.35008 4.57368 5.9003 5.00015 5.45657 5.45207C5.01284 5.90398 4.5867 6.35832 4.17813 6.81508V6.82054C3.98264 7.04589 3.78987 7.26761 3.60347 7.4975V7.49296C3.42768 7.23065 3.26673 6.97441 3.12064 6.72422L3.1161 6.72967C2.79725 7.10586 2.49809 7.48326 2.21864 7.86188C2.37807 8.11449 2.54538 8.36801 2.72056 8.62244C2.98789 9.01136 3.27522 9.40027 3.57528 9.78555C3.75714 10.0194 3.94505 10.2502 4.13903 10.478L4.1845 10.4125C4.30998 10.2308 4.44091 10.0491 4.5773 9.86733C4.70278 9.69832 4.8322 9.52749 4.96556 9.35484L4.97193 9.34666C4.78371 9.11677 4.60003 8.88505 4.42636 8.65607C4.60822 8.4289 4.79007 8.20173 4.98829 7.97728C5.43838 7.45116 5.91848 6.92231 6.42768 6.4189C6.93687 5.91549 7.45697 5.42662 7.98435 4.97955C8.20894 4.78782 8.43899 4.59973 8.66176 4.42253C8.89272 4.59518 9.12458 4.77965 9.35463 4.96774C9.50739 4.84658 9.65893 4.73027 9.80927 4.61881C10.0093 4.47039 10.2084 4.32773 10.4067 4.19082L10.4821 4.13812L10.4885 4.13358C10.2606 3.94094 10.0296 3.75345 9.79563 3.5711C10.0472 3.39543 10.2975 3.22944 10.5467 3.07315C12.2216 1.99909 13.7946 1.37119 14.953 1.37119C15.4986 1.37119 15.9241 1.52113 16.206 1.79736C16.8552 2.44616 16.7589 3.84098 15.946 5.62653C15.652 6.26283 15.3141 6.87797 14.9348 7.46751C15.2449 7.85279 15.5359 8.24353 15.8123 8.63062C16.3389 7.85789 16.8015 7.04342 17.1953 6.19537C18.2773 3.82463 18.2692 1.91913 17.1771 0.828714ZM11.5833 11.5802C11.4014 11.7619 11.2153 11.9415 11.025 12.119H11.4978C11.5804 12.1188 11.6596 12.0859 11.7181 12.0275C11.7765 11.9691 11.8094 11.8899 11.8097 11.8074V11.353C11.7351 11.43 11.6596 11.5057 11.5833 11.5802ZM15.4213 9.56838L15.2913 9.37756C15.0185 8.98864 14.7366 8.59973 14.4347 8.21536C14.3438 8.09814 14.2529 7.98274 14.1574 7.86733C14.0619 7.75193 13.9683 7.63653 13.8728 7.52113L13.841 7.56747C13.6982 7.77646 13.5473 7.98546 13.3918 8.19446C13.2791 8.34711 13.1627 8.50068 13.0426 8.6488C13.2336 8.8796 13.4154 9.1098 13.5882 9.33939C13.4064 9.56656 13.219 9.79282 13.0263 10.0182C12.738 10.3535 12.4371 10.6906 12.1243 11.0177V11.7946C12.124 11.9599 12.0582 12.1183 11.9413 12.2352C11.8244 12.352 11.6659 12.4178 11.5005 12.418H10.6931C10.473 12.6203 10.2521 12.8169 10.0302 13.0077C9.80381 13.1995 9.57558 13.3876 9.35008 13.5675C9.12004 13.393 8.88817 13.2104 8.65812 13.0223C8.47627 13.1658 8.2929 13.3049 8.10802 13.4393C8.03164 13.4948 7.95617 13.5502 7.8807 13.6038C7.75946 13.6911 7.63822 13.7759 7.51699 13.8582C7.63155 13.9555 7.74703 14.0518 7.86251 14.1445C7.91979 14.1917 7.97799 14.2353 8.03618 14.2844C8.09438 14.3335 8.15166 14.3753 8.20985 14.4216C8.08346 14.5125 7.95798 14.5943 7.8325 14.677L7.70066 14.7678C7.61973 14.8214 7.53972 14.8723 7.4597 14.9232C5.77027 16.0036 4.20086 16.6288 3.04517 16.6288C2.49961 16.6288 2.07407 16.4861 1.79038 16.2017C1.14297 15.5538 1.23936 14.1581 2.05225 12.3744C2.34699 11.7376 2.68576 11.1222 3.06609 10.5325C2.75693 10.1454 2.46385 9.75738 2.18682 9.36847C1.66105 10.1419 1.19942 10.957 0.806541 11.8055C-0.271859 14.1754 -0.271859 16.0836 0.824726 17.174C1.37029 17.7238 2.12226 18.0018 3.0479 18.0018C4.58549 18.0018 6.55861 17.2113 8.62994 15.821C8.87635 15.6565 9.1264 15.4802 9.38191 15.2976C9.59195 15.1422 9.80472 14.9814 10.0184 14.8151L10.233 14.6479C10.3239 14.5725 10.4248 14.4961 10.5203 14.4189C10.7467 14.2372 10.9704 14.0391 11.1986 13.8373C11.6551 13.4375 12.1082 13.0135 12.558 12.5652C13.0078 12.1169 13.4336 11.6665 13.8355 11.214C13.9801 11.0323 14.1238 10.8605 14.2674 10.6888C14.3156 10.6315 14.3584 10.5743 14.4111 10.5179C14.5793 10.776 14.7375 11.0304 14.8867 11.284C15.2055 10.9072 15.5062 10.5279 15.7887 10.1463C15.6714 9.95002 15.5495 9.7592 15.4213 9.56838Z" fill="#B0B0B0"/>
<path d="M10.9469 13.6693C10.8324 13.593 10.7178 13.5148 10.6032 13.4349C10.4111 13.301 10.2189 13.1629 10.0267 13.0205C9.80033 13.2122 9.5721 13.4003 9.3466 13.5803C9.11655 13.4058 8.88469 13.2231 8.65464 13.0351C8.00178 12.4989 7.35256 11.9119 6.72152 11.2795C6.58513 11.1432 6.44874 11.0069 6.31871 10.8669C6.02792 10.8406 5.75746 10.7067 5.56046 10.4913C5.36345 10.2759 5.25413 9.99473 5.25395 9.70293V9.69566C5.15575 9.58117 5.05937 9.46668 4.96481 9.35218L4.95844 9.344C4.77113 9.11411 4.58746 8.8824 4.41288 8.65341C4.59473 8.42624 4.77659 8.19907 4.97481 7.97463C4.80568 7.74625 4.64353 7.51908 4.48835 7.29312C4.42197 7.19589 4.3565 7.09866 4.29285 7.00234C4.25102 6.94176 4.21011 6.87906 4.1701 6.81425V6.80879C3.97461 7.03415 3.78275 7.25677 3.59544 7.48667V7.49121C3.42631 7.23375 3.2687 6.98023 3.12261 6.73065C3.12235 6.72884 3.12235 6.727 3.12261 6.72519C2.87744 6.31328 2.65435 5.88863 2.4543 5.45305C1.73142 3.86468 1.60049 2.61252 2.11423 2.10729C2.31882 1.90375 2.64525 1.80743 3.06442 1.80743C3.68455 1.80743 4.51926 2.02915 5.46854 2.46077C5.90419 2.66014 6.3291 2.88216 6.74153 3.12592C7.1113 2.7988 7.48531 2.49651 7.86357 2.21906C5.12575 0.498026 2.48521 -0.227099 1.12585 1.13047C-0.233518 2.48803 0.494811 5.1341 2.20788 7.86195C2.36731 8.11456 2.53431 8.36808 2.70889 8.62251C2.98168 9.01143 3.26355 9.40034 3.56452 9.78562C3.74638 10.0195 3.93399 10.2503 4.12736 10.478C4.63838 11.0893 5.17879 11.6793 5.7486 12.2481C6.31872 12.8179 6.91247 13.364 7.5135 13.8701C7.62807 13.9674 7.74355 14.0637 7.85903 14.1564C7.91631 14.2036 7.9745 14.2472 8.0327 14.2963L8.20455 14.4335C8.07907 14.5207 7.95389 14.6059 7.82902 14.6888L7.69718 14.7797L7.57351 14.8588L7.4544 14.9351C7.84357 15.2495 8.23334 15.5445 8.62373 15.8202C8.87014 15.6557 9.12019 15.4794 9.3757 15.2968C9.58786 15.1417 9.80002 14.9808 10.0122 14.8142L10.2268 14.647C10.3177 14.5716 10.4186 14.4953 10.5141 14.4181C10.7405 14.2363 10.9642 14.0382 11.1924 13.8365C11.1133 13.7802 11.0297 13.7211 10.9469 13.6693ZM15.7924 10.1373C15.6733 9.94827 15.5488 9.75836 15.4206 9.56845L15.2905 9.37763C15.0177 8.98871 14.7359 8.5998 14.434 8.21543C14.3431 8.09821 14.2521 7.9828 14.1567 7.8674C14.0612 7.752 13.9675 7.6366 13.8721 7.5212C13.3592 6.91056 12.8188 6.32053 12.2508 5.75109C11.6828 5.18165 11.0942 4.64372 10.485 4.13728V4.13274C10.2565 3.9401 10.0255 3.75261 9.79214 3.57027C10.0437 3.39459 10.2944 3.2286 10.5441 3.07231C10.1649 2.77154 9.77123 2.47167 9.37024 2.18907C9.12565 2.35445 8.87741 2.52892 8.62918 2.71066C8.25365 2.98326 7.87812 3.28131 7.49804 3.59298C7.27194 3.77472 7.04492 3.96796 6.817 4.17272C6.93096 4.24541 7.04523 4.32023 7.15979 4.39716C7.21526 4.43351 7.27164 4.47167 7.3271 4.50984C7.54533 4.65765 7.76446 4.81424 7.98451 4.97962C8.21001 4.78698 8.43914 4.59889 8.66373 4.42079C8.89469 4.59253 9.12565 4.77699 9.35478 4.96599C9.51057 5.09503 9.66576 5.22678 9.82033 5.36127C10.3715 5.5049 10.8758 5.7891 11.284 6.18604C11.6922 6.58298 11.9903 7.07906 12.149 7.62569C12.46 7.96554 12.7573 8.30811 13.041 8.65341C13.2319 8.88421 13.4138 9.11441 13.5865 9.344C13.4047 9.57117 13.2174 9.79743 13.0246 10.0228C13.1186 10.1494 13.2095 10.2754 13.2974 10.4008C13.4483 10.6134 13.5938 10.8251 13.7311 11.0369L13.8284 11.1877L14.2576 10.6779C14.3058 10.6207 14.3485 10.5634 14.4013 10.5071C14.5695 10.7652 14.7277 11.0196 14.8768 11.2731C15.1215 11.687 15.3449 12.1131 15.546 12.5498C16.2735 14.1382 16.4008 15.3903 15.8925 15.8965C15.3842 16.4026 14.1348 16.2718 12.5454 15.5485C12.1099 15.3495 11.685 15.1281 11.2724 14.8851C10.8924 15.2059 10.5105 15.5094 10.1313 15.7938C10.7225 16.1675 11.3379 16.5014 11.9735 16.7933C13.0992 17.304 14.103 17.5603 14.9432 17.5603C15.7443 17.5603 16.398 17.3276 16.8636 16.8624C18.2339 15.5085 17.5055 12.866 15.7924 10.1373Z" fill="#B0B0B0"/>
<path d="M8.8089 8.85612H8.42336C8.39953 8.85844 8.37742 8.86954 8.36133 8.88726C8.34524 8.90498 8.33633 8.92805 8.33633 8.95198C8.33633 8.97591 8.34524 8.99898 8.36133 9.0167C8.37742 9.03442 8.39953 9.04553 8.42336 9.04785H8.8089C8.82228 9.04915 8.83579 9.04764 8.84855 9.04342C8.86131 9.03919 8.87305 9.03235 8.88301 9.02332C8.89297 9.01429 8.90093 9.00328 8.90637 8.99099C8.91182 8.97871 8.91463 8.96542 8.91463 8.95198C8.91463 8.93854 8.91182 8.92526 8.90637 8.91297C8.90093 8.90069 8.89297 8.88967 8.88301 8.88065C8.87305 8.87162 8.86131 8.86477 8.84855 8.86055C8.83579 8.85632 8.82228 8.85481 8.8089 8.85612ZM9.2899 8.47084H8.42336C8.3978 8.47084 8.37329 8.48098 8.35521 8.49905C8.33714 8.51711 8.32698 8.54161 8.32698 8.56716C8.32698 8.5927 8.33714 8.6172 8.35521 8.63526C8.37329 8.65333 8.3978 8.66348 8.42336 8.66348H9.2899C9.31547 8.66348 9.33998 8.65333 9.35806 8.63526C9.37613 8.6172 9.38629 8.5927 9.38629 8.56716C9.38629 8.54161 9.37613 8.51711 9.35806 8.49905C9.33998 8.48098 9.31547 8.47084 9.2899 8.47084ZM9.2899 8.47084H8.42336C8.3978 8.47084 8.37329 8.48098 8.35521 8.49905C8.33714 8.51711 8.32698 8.54161 8.32698 8.56716C8.32698 8.5927 8.33714 8.6172 8.35521 8.63526C8.37329 8.65333 8.3978 8.66348 8.42336 8.66348H9.2899C9.31547 8.66348 9.33998 8.65333 9.35806 8.63526C9.37613 8.6172 9.38629 8.5927 9.38629 8.56716C9.38629 8.54161 9.37613 8.51711 9.35806 8.49905C9.33998 8.48098 9.31547 8.47084 9.2899 8.47084ZM8.8089 8.85612H8.42336C8.39953 8.85844 8.37742 8.86954 8.36133 8.88726C8.34524 8.90498 8.33633 8.92805 8.33633 8.95198C8.33633 8.97591 8.34524 8.99898 8.36133 9.0167C8.37742 9.03442 8.39953 9.04553 8.42336 9.04785H8.8089C8.82228 9.04915 8.83579 9.04764 8.84855 9.04342C8.86131 9.03919 8.87305 9.03235 8.88301 9.02332C8.89297 9.01429 8.90093 9.00328 8.90637 8.99099C8.91182 8.97871 8.91463 8.96542 8.91463 8.95198C8.91463 8.93854 8.91182 8.92526 8.90637 8.91297C8.90093 8.90069 8.89297 8.88967 8.88301 8.88065C8.87305 8.87162 8.86131 8.86477 8.84855 8.86055C8.83579 8.85632 8.82228 8.85481 8.8089 8.85612ZM8.8089 8.85612H8.42336C8.39953 8.85844 8.37742 8.86954 8.36133 8.88726C8.34524 8.90498 8.33633 8.92805 8.33633 8.95198C8.33633 8.97591 8.34524 8.99898 8.36133 9.0167C8.37742 9.03442 8.39953 9.04553 8.42336 9.04785H8.8089C8.82228 9.04915 8.83579 9.04764 8.84855 9.04342C8.86131 9.03919 8.87305 9.03235 8.88301 9.02332C8.89297 9.01429 8.90093 9.00328 8.90637 8.99099C8.91182 8.97871 8.91463 8.96542 8.91463 8.95198C8.91463 8.93854 8.91182 8.92526 8.90637 8.91297C8.90093 8.90069 8.89297 8.88967 8.88301 8.88065C8.87305 8.87162 8.86131 8.86477 8.84855 8.86055C8.83579 8.85632 8.82228 8.85481 8.8089 8.85612ZM9.2899 8.47084H8.42336C8.3978 8.47084 8.37329 8.48098 8.35521 8.49905C8.33714 8.51711 8.32698 8.54161 8.32698 8.56716C8.32698 8.5927 8.33714 8.6172 8.35521 8.63526C8.37329 8.65333 8.3978 8.66348 8.42336 8.66348H9.2899C9.31547 8.66348 9.33998 8.65333 9.35806 8.63526C9.37613 8.6172 9.38629 8.5927 9.38629 8.56716C9.38629 8.54161 9.37613 8.51711 9.35806 8.49905C9.33998 8.48098 9.31547 8.47084 9.2899 8.47084ZM9.2899 8.47084H8.42336C8.3978 8.47084 8.37329 8.48098 8.35521 8.49905C8.33714 8.51711 8.32698 8.54161 8.32698 8.56716C8.32698 8.5927 8.33714 8.6172 8.35521 8.63526C8.37329 8.65333 8.3978 8.66348 8.42336 8.66348H9.2899C9.31547 8.66348 9.33998 8.65333 9.35806 8.63526C9.37613 8.6172 9.38629 8.5927 9.38629 8.56716C9.38629 8.54161 9.37613 8.51711 9.35806 8.49905C9.33998 8.48098 9.31547 8.47084 9.2899 8.47084ZM8.8089 8.85612H8.42336C8.39953 8.85844 8.37742 8.86954 8.36133 8.88726C8.34524 8.90498 8.33633 8.92805 8.33633 8.95198C8.33633 8.97591 8.34524 8.99898 8.36133 9.0167C8.37742 9.03442 8.39953 9.04553 8.42336 9.04785H8.8089C8.82228 9.04915 8.83579 9.04764 8.84855 9.04342C8.86131 9.03919 8.87305 9.03235 8.88301 9.02332C8.89297 9.01429 8.90093 9.00328 8.90637 8.99099C8.91182 8.97871 8.91463 8.96542 8.91463 8.95198C8.91463 8.93854 8.91182 8.92526 8.90637 8.91297C8.90093 8.90069 8.89297 8.88967 8.88301 8.88065C8.87305 8.87162 8.86131 8.86477 8.84855 8.86055C8.83579 8.85632 8.82228 8.85481 8.8089 8.85612ZM13.8417 7.56761C12.8231 6.32166 11.6729 5.18924 10.411 4.19006C9.87007 3.75281 9.3025 3.3495 8.7116 2.98242L7.15674 4.39723L4.29435 7.0015L2.80859 8.35362C3.02591 8.99514 3.53601 9.70573 4.18524 10.4127C5.28182 11.6085 6.76758 12.7943 7.87871 13.6158C8.77889 14.2818 9.43266 14.7062 9.43266 14.7062C9.96042 14.3937 10.4668 14.0464 10.9484 13.6667C11.95 12.8683 12.8842 11.9891 13.7417 11.0379C14.6092 10.0865 15.1438 9.37043 15.1438 9.37043C14.7451 8.74481 14.3103 8.14286 13.8417 7.56761ZM7.65412 10.2028V8.56716C7.65364 8.45342 7.6757 8.34071 7.71903 8.23554C7.76236 8.13037 7.82611 8.03482 7.90658 7.95439C7.98706 7.87397 8.08268 7.81027 8.18792 7.76696C8.29316 7.72366 8.40594 7.70161 8.51975 7.7021H9.48176C9.59565 7.70149 9.70853 7.72345 9.81387 7.7667C9.91922 7.80995 10.0149 7.87363 10.0955 7.95407C10.1761 8.03451 10.2399 8.1301 10.2833 8.23533C10.3267 8.34056 10.3488 8.45334 10.3483 8.56716V8.95153C10.3489 9.06542 10.3269 9.1783 10.2836 9.28363C10.2402 9.38897 10.1764 9.48467 10.0958 9.5652C10.0153 9.64574 9.91949 9.7095 9.81408 9.75281C9.70868 9.79611 9.59572 9.8181 9.48176 9.8175H9.02712C8.58247 9.81998 8.15392 9.98406 7.82142 10.2791C7.80039 10.2896 7.77756 10.2961 7.75414 10.2982C7.74032 10.2997 7.72643 10.2962 7.71504 10.2882C7.69715 10.2819 7.68166 10.2703 7.67074 10.2548C7.65981 10.2393 7.654 10.2208 7.65412 10.2019V10.2028ZM12.1223 11.8084C12.1221 11.9737 12.0563 12.1321 11.9393 12.2489C11.8224 12.3658 11.6639 12.4315 11.4985 12.4318H9.75363C9.72131 12.5227 9.66172 12.6016 9.58297 12.6575C9.50423 12.7134 9.41015 12.7438 9.31354 12.7443H8.84527C8.72107 12.7443 8.60197 12.695 8.51415 12.6073C8.42633 12.5195 8.37699 12.4005 8.37699 12.2764C8.37699 12.1523 8.42633 12.0332 8.51415 11.9455C8.60197 11.8577 8.72107 11.8084 8.84527 11.8084H9.31354C9.41017 11.8084 9.50441 11.8384 9.58324 11.8942C9.66207 11.9501 9.72161 12.029 9.75363 12.1201H11.4985C11.5812 12.1198 11.6604 12.0869 11.7188 12.0285C11.7772 11.9701 11.8102 11.891 11.8104 11.8084V10.8479C11.7332 10.8637 11.6546 10.8716 11.5758 10.8716H11.3421V8.53172H11.5758C11.7089 8.53112 11.8411 8.55452 11.9659 8.60078V8.53172C11.9659 6.8961 10.6365 6.20823 9.00075 6.20823C7.36497 6.20823 6.03561 6.89792 6.03561 8.53172V8.60078C6.16045 8.55459 6.29257 8.5312 6.42569 8.53172H6.66028V10.8716H6.42569C6.39046 10.8716 6.35525 10.8698 6.32021 10.8661C6.02941 10.8398 5.75896 10.7058 5.56195 10.4905C5.36495 10.2751 5.25562 9.99389 5.25545 9.7021V9.69483C5.2564 9.51478 5.2992 9.33743 5.38046 9.17674C5.46173 9.01605 5.57924 8.87643 5.72373 8.76888V8.53172C5.72373 7.66305 6.06903 6.82995 6.68368 6.21571C7.29833 5.60147 8.13197 5.25639 9.00121 5.25639C9.87045 5.25639 10.7041 5.60147 11.3187 6.21571C11.9334 6.82995 12.2787 7.66305 12.2787 8.53172V8.76888C12.4366 8.88668 12.5621 9.04257 12.6433 9.22197C12.7246 9.40138 12.7591 9.59845 12.7434 9.79476C12.7278 9.99108 12.6626 10.1802 12.554 10.3445C12.4454 10.5089 12.2969 10.643 12.1223 10.7344V11.8084ZM8.42336 8.66348H9.2899C9.31547 8.66348 9.33998 8.65333 9.35806 8.63526C9.37613 8.6172 9.38629 8.5927 9.38629 8.56716C9.38629 8.54161 9.37613 8.51711 9.35806 8.49905C9.33998 8.48098 9.31547 8.47084 9.2899 8.47084H8.42336C8.3978 8.47084 8.37329 8.48098 8.35521 8.49905C8.33714 8.51711 8.32698 8.54161 8.32698 8.56716C8.32698 8.5927 8.33714 8.6172 8.35521 8.63526C8.37329 8.65333 8.3978 8.66348 8.42336 8.66348ZM8.42336 9.04785H8.8089C8.82228 9.04915 8.83579 9.04764 8.84855 9.04342C8.86131 9.03919 8.87305 9.03235 8.88301 9.02332C8.89297 9.01429 8.90093 9.00328 8.90637 8.99099C8.91182 8.97871 8.91463 8.96542 8.91463 8.95198C8.91463 8.93854 8.91182 8.92526 8.90637 8.91297C8.90093 8.90069 8.89297 8.88967 8.88301 8.88065C8.87305 8.87162 8.86131 8.86477 8.84855 8.86055C8.83579 8.85632 8.82228 8.85481 8.8089 8.85612H8.42336C8.39953 8.85844 8.37742 8.86954 8.36133 8.88726C8.34524 8.90498 8.33633 8.92805 8.33633 8.95198C8.33633 8.97591 8.34524 8.99898 8.36133 9.0167C8.37742 9.03442 8.39953 9.04553 8.42336 9.04785ZM8.8089 8.85612H8.42336C8.39953 8.85844 8.37742 8.86954 8.36133 8.88726C8.34524 8.90498 8.33633 8.92805 8.33633 8.95198C8.33633 8.97591 8.34524 8.99898 8.36133 9.0167C8.37742 9.03442 8.39953 9.04553 8.42336 9.04785H8.8089C8.82228 9.04915 8.83579 9.04764 8.84855 9.04342C8.86131 9.03919 8.87305 9.03235 8.88301 9.02332C8.89297 9.01429 8.90093 9.00328 8.90637 8.99099C8.91182 8.97871 8.91463 8.96542 8.91463 8.95198C8.91463 8.93854 8.91182 8.92526 8.90637 8.91297C8.90093 8.90069 8.89297 8.88967 8.88301 8.88065C8.87305 8.87162 8.86131 8.86477 8.84855 8.86055C8.83579 8.85632 8.82228 8.85481 8.8089 8.85612ZM9.2899 8.47084H8.42336C8.3978 8.47084 8.37329 8.48098 8.35521 8.49905C8.33714 8.51711 8.32698 8.54161 8.32698 8.56716C8.32698 8.5927 8.33714 8.6172 8.35521 8.63526C8.37329 8.65333 8.3978 8.66348 8.42336 8.66348H9.2899C9.31547 8.66348 9.33998 8.65333 9.35806 8.63526C9.37613 8.6172 9.38629 8.5927 9.38629 8.56716C9.38629 8.54161 9.37613 8.51711 9.35806 8.49905C9.33998 8.48098 9.31547 8.47084 9.2899 8.47084ZM9.2899 8.47084H8.42336C8.3978 8.47084 8.37329 8.48098 8.35521 8.49905C8.33714 8.51711 8.32698 8.54161 8.32698 8.56716C8.32698 8.5927 8.33714 8.6172 8.35521 8.63526C8.37329 8.65333 8.3978 8.66348 8.42336 8.66348H9.2899C9.31547 8.66348 9.33998 8.65333 9.35806 8.63526C9.37613 8.6172 9.38629 8.5927 9.38629 8.56716C9.38629 8.54161 9.37613 8.51711 9.35806 8.49905C9.33998 8.48098 9.31547 8.47084 9.2899 8.47084ZM8.8089 8.85612H8.42336C8.39953 8.85844 8.37742 8.86954 8.36133 8.88726C8.34524 8.90498 8.33633 8.92805 8.33633 8.95198C8.33633 8.97591 8.34524 8.99898 8.36133 9.0167C8.37742 9.03442 8.39953 9.04553 8.42336 9.04785H8.8089C8.82228 9.04915 8.83579 9.04764 8.84855 9.04342C8.86131 9.03919 8.87305 9.03235 8.88301 9.02332C8.89297 9.01429 8.90093 9.00328 8.90637 8.99099C8.91182 8.97871 8.91463 8.96542 8.91463 8.95198C8.91463 8.93854 8.91182 8.92526 8.90637 8.91297C8.90093 8.90069 8.89297 8.88967 8.88301 8.88065C8.87305 8.87162 8.86131 8.86477 8.84855 8.86055C8.83579 8.85632 8.82228 8.85481 8.8089 8.85612Z" fill="#B0B0B0"/>
</g>
<defs>
<clipPath id="clip0_1187_2458">
<rect width="18" height="18" fill="white"/>
</clipPath>
</defs>
</svg>
