<svg width="36" height="40" viewBox="0 0 18 20" fill="none" xmlns="http://www.w3.org/2000/svg">
<path d="M17.0344 5.71564L11.7844 0.465637C11.6415 0.326345 11.4495 0.248887 11.25 0.250012H2.25C1.85218 0.250012 1.47064 0.408047 1.18934 0.689352C0.908035 0.970656 0.75 1.35219 0.75 1.75001V18.25C0.75 18.6478 0.908035 19.0294 1.18934 19.3107C1.47064 19.592 1.85218 19.75 2.25 19.75H15.75C16.1478 19.75 16.5294 19.592 16.8107 19.3107C17.092 19.0294 17.25 18.6478 17.25 18.25V6.25001C17.2511 6.05048 17.1737 5.85851 17.0344 5.71564V5.71564ZM12 14.5H6C5.80109 14.5 5.61032 14.421 5.46967 14.2803C5.32902 14.1397 5.25 13.9489 5.25 13.75C5.25 13.5511 5.32902 13.3603 5.46967 13.2197C5.61032 13.079 5.80109 13 6 13H12C12.1989 13 12.3897 13.079 12.5303 13.2197C12.671 13.3603 12.75 13.5511 12.75 13.75C12.75 13.9489 12.671 14.1397 12.5303 14.2803C12.3897 14.421 12.1989 14.5 12 14.5ZM12 11.5H6C5.80109 11.5 5.61032 11.421 5.46967 11.2803C5.32902 11.1397 5.25 10.9489 5.25 10.75C5.25 10.5511 5.32902 10.3603 5.46967 10.2197C5.61032 10.079 5.80109 10 6 10H12C12.1989 10 12.3897 10.079 12.5303 10.2197C12.671 10.3603 12.75 10.5511 12.75 10.75C12.75 10.9489 12.671 11.1397 12.5303 11.2803C12.3897 11.421 12.1989 11.5 12 11.5ZM11.25 6.25001V2.12501L15.375 6.25001H11.25Z" fill="#262626"/>
</svg>
