<svg width="40" height="38" viewBox="0 0 20 19" fill="none" xmlns="http://www.w3.org/2000/svg">
<path d="M19.7396 17.8752C18.3402 15.4644 16.1001 13.655 13.449 12.7939C14.7198 12.0383 15.7073 10.8863 16.2598 9.51495C16.8124 8.14362 16.8994 6.62881 16.5076 5.20321C16.1158 3.77762 15.2667 2.5201 14.0909 1.62385C12.915 0.727599 11.4775 0.242187 9.99899 0.242188C8.52052 0.242187 7.08295 0.727599 5.90711 1.62385C4.73128 2.5201 3.88222 3.77762 3.49038 5.20321C3.09853 6.62881 3.18558 8.14362 3.73815 9.51495C4.29071 10.8863 5.27823 12.0383 6.54899 12.7939C3.89783 13.655 1.6578 15.4644 0.258366 17.8752C0.189658 17.9882 0.15332 18.1179 0.15332 18.2502C0.15332 18.3824 0.189658 18.5121 0.258366 18.6252C0.322469 18.7401 0.416399 18.8356 0.53025 18.9016C0.6441 18.9676 0.773652 19.0016 0.905241 19.0002H19.0927C19.2243 19.0016 19.3539 18.9676 19.4677 18.9016C19.5816 18.8356 19.6755 18.7401 19.7396 18.6252C19.8083 18.5121 19.8447 18.3824 19.8447 18.2502C19.8447 18.1179 19.8083 17.9882 19.7396 17.8752Z" fill="#B0B0B0"/>
</svg>
