<svg width="40" height="38" viewBox="0 0 20 19" fill="none" xmlns="http://www.w3.org/2000/svg">
<path d="M19.7386 17.8752C18.3392 15.4644 16.0992 13.655 13.448 12.7939C14.7188 12.0383 15.7063 10.8863 16.2589 9.51495C16.8114 8.14362 16.8985 6.62881 16.5066 5.20321C16.1148 3.77762 15.2657 2.5201 14.0899 1.62385C12.9141 0.727599 11.4765 0.242187 9.99801 0.242188C8.51955 0.242187 7.08197 0.727599 5.90614 1.62385C4.7303 2.5201 3.88124 3.77762 3.4894 5.20321C3.09756 6.62881 3.1846 8.14362 3.73717 9.51495C4.28973 10.8863 5.27725 12.0383 6.54801 12.7939C3.89685 13.655 1.65683 15.4644 0.257389 17.8752C0.188681 17.9882 0.152344 18.1179 0.152344 18.2502C0.152344 18.3824 0.188681 18.5121 0.257389 18.6252C0.321493 18.7401 0.415423 18.8356 0.529273 18.9016C0.643124 18.9676 0.772675 19.0016 0.904264 19.0002H19.0918C19.2234 19.0016 19.3529 18.9676 19.4668 18.9016C19.5806 18.8356 19.6745 18.7401 19.7386 18.6252C19.8073 18.5121 19.8437 18.3824 19.8437 18.2502C19.8437 18.1179 19.8073 17.9882 19.7386 17.8752Z" fill="#262626"/>
</svg>
