<svg width="26" height="24" viewBox="0 0 13 12" fill="none" xmlns="http://www.w3.org/2000/svg">
<path d="M12.1582 9.30313L9.44819 6.83913C9.32009 6.7227 9.15175 6.6606 8.97872 6.66595C8.8057 6.6713 8.64152 6.74367 8.52085 6.8678L6.92552 8.50846C6.54152 8.43513 5.76952 8.19446 4.97485 7.4018C4.18019 6.60646 3.93952 5.83246 3.86819 5.45113L5.50752 3.85513C5.6318 3.73455 5.70428 3.57034 5.70963 3.39727C5.71498 3.22419 5.65278 3.05582 5.53619 2.92779L3.07285 0.218461C2.95622 0.0900325 2.79411 0.0121309 2.62096 0.00130119C2.44781 -0.00952851 2.27725 0.0475669 2.14552 0.160461L0.698855 1.40113C0.583595 1.51681 0.514801 1.67076 0.505521 1.83379C0.495521 2.00046 0.304855 5.94846 3.36619 9.01113C6.03685 11.6811 9.38219 11.8765 10.3035 11.8765C10.4382 11.8765 10.5209 11.8725 10.5429 11.8711C10.7059 11.862 10.8597 11.7929 10.9749 11.6771L12.2149 10.2298C12.3282 10.0985 12.3857 9.92807 12.3751 9.75493C12.3645 9.58179 12.2867 9.41965 12.1582 9.30313Z" fill="white"/>
</svg>
