<svg width="32" height="36" viewBox="0 0 16 18" fill="none" xmlns="http://www.w3.org/2000/svg">
<path d="M15.2501 12.7422C14.7892 11.9453 14.2345 10.4297 14.2345 7.75V7.19531C14.2345 3.73438 11.4611 0.898438 8.04702 0.875H8.00014C7.18041 0.876025 6.3689 1.0385 5.61195 1.35315C4.85501 1.66779 4.16745 2.12845 3.58854 2.70882C3.00962 3.28918 2.55068 3.97789 2.23793 4.73562C1.92518 5.49335 1.76474 6.30526 1.76577 7.125V7.75C1.76577 10.4297 1.21108 11.9453 0.750142 12.7422C0.638666 12.9321 0.579331 13.1481 0.578143 13.3683C0.576955 13.5885 0.633955 13.8051 0.743376 13.9961C0.852796 14.1872 1.01075 14.346 1.20126 14.4565C1.39177 14.5669 1.60807 14.625 1.82827 14.625H4.87514C4.87514 15.4538 5.20438 16.2487 5.79043 16.8347C6.37648 17.4208 7.17134 17.75 8.00014 17.75C8.82894 17.75 9.6238 17.4208 10.2099 16.8347C10.7959 16.2487 11.1251 15.4538 11.1251 14.625H14.172C14.3922 14.6264 14.6087 14.5693 14.7996 14.4594C14.9904 14.3496 15.1486 14.1911 15.258 14C15.3664 13.8079 15.4227 13.5907 15.4214 13.3701C15.42 13.1494 15.361 12.933 15.2501 12.7422ZM8.00014 16.5C7.50349 16.4979 7.02777 16.2997 6.67659 15.9486C6.3254 15.5974 6.1272 15.1216 6.12514 14.625H9.87514C9.87309 15.1216 9.67488 15.5974 9.3237 15.9486C8.97251 16.2997 8.49679 16.4979 8.00014 16.5Z" fill="#262626"/>
</svg>
