<svg width="13" height="13" viewBox="0 0 13 13" fill="none" xmlns="http://www.w3.org/2000/svg">
<path d="M12.0078 8.78121L9.25977 7.60933C9.11797 7.54578 8.96232 7.51943 8.80751 7.53275C8.6527 7.54608 8.50384 7.59865 8.375 7.68551L6.9043 8.66402C6.00796 8.22868 5.28224 7.50708 4.8418 6.61324L5.81445 5.12496C5.90073 4.99598 5.95342 4.8475 5.96774 4.69299C5.98207 4.53848 5.95758 4.38283 5.89648 4.24019L4.71875 1.49215C4.63657 1.30659 4.49742 1.15203 4.32147 1.05089C4.14553 0.949749 3.94194 0.907282 3.74023 0.929646C2.94898 1.0333 2.22229 1.42076 1.69527 2.01999C1.16825 2.61922 0.876759 3.38945 0.875 4.18746C0.875 8.8398 4.66016 12.625 9.3125 12.625C10.1105 12.6232 10.8807 12.3317 11.48 11.8047C12.0792 11.2777 12.4667 10.551 12.5703 9.75972C12.5927 9.55802 12.5502 9.35443 12.4491 9.17849C12.3479 9.00254 12.1934 8.86339 12.0078 8.78121Z" fill="#0F0F0F"/>
</svg>
