<svg width="82" height="73" viewBox="0 0 82 73" fill="none" xmlns="http://www.w3.org/2000/svg">
<path d="M80.0603 59.5623L48.4712 4.93733C47.7149 3.62356 46.6258 2.53232 45.3135 1.77354C44.0012 1.01475 42.5121 0.615234 40.9962 0.615234C39.4803 0.615234 37.9912 1.01475 36.6789 1.77354C35.3666 2.53232 34.2775 3.62356 33.5212 4.93733V4.93733L1.93214 59.5623C1.16475 60.8694 0.756935 62.3563 0.750088 63.872C0.74324 65.3877 1.13761 66.8782 1.89315 68.1922C2.64869 69.5062 3.73849 70.5969 5.05189 71.3534C6.36528 72.11 7.85549 72.5055 9.3712 72.4998H72.6212C74.1369 72.5055 75.6271 72.11 76.9405 71.3534C78.2539 70.5969 79.3437 69.5062 80.0992 68.1922C80.8548 66.8782 81.2492 65.3877 81.2423 63.872C81.2355 62.3563 80.8276 60.8694 80.0603 59.5623V59.5623ZM38.1212 29.3748C38.1212 28.6123 38.4241 27.8811 38.9633 27.3419C39.5024 26.8027 40.2337 26.4998 40.9962 26.4998C41.7587 26.4998 42.49 26.8027 43.0291 27.3419C43.5683 27.8811 43.8712 28.6123 43.8712 29.3748V43.7498C43.8712 44.5123 43.5683 45.2436 43.0291 45.7828C42.49 46.3219 41.7587 46.6248 40.9962 46.6248C40.2337 46.6248 39.5024 46.3219 38.9633 45.7828C38.4241 45.2436 38.1212 44.5123 38.1212 43.7498V29.3748ZM40.9962 60.9998C40.1433 60.9998 39.3095 60.7469 38.6003 60.273C37.8911 59.7992 37.3384 59.1257 37.012 58.3377C36.6856 57.5496 36.6002 56.6825 36.7666 55.846C36.933 55.0095 37.3437 54.241 37.9468 53.6379C38.5499 53.0348 39.3183 52.6241 40.1549 52.4577C40.9914 52.2913 41.8585 52.3767 42.6465 52.7031C43.4345 53.0295 44.108 53.5822 44.5819 54.2914C45.0558 55.0006 45.3087 55.8344 45.3087 56.6873C45.3087 57.8311 44.8543 58.928 44.0456 59.7367C43.2368 60.5455 42.1399 60.9998 40.9962 60.9998Z" fill="#DC2804"/>
</svg>
