<svg width="162" height="146" viewBox="0 0 81 73" fill="none" xmlns="http://www.w3.org/2000/svg">
<path d="M79.5603 59.5623L47.9712 4.93733C47.2149 3.62356 46.1258 2.53232 44.8135 1.77354C43.5012 1.01475 42.0121 0.615234 40.4962 0.615234C38.9803 0.615234 37.4912 1.01475 36.1789 1.77354C34.8666 2.53232 33.7775 3.62356 33.0212 4.93733L1.43214 59.5623C0.664755 60.8694 0.256935 62.3563 0.250088 63.872C0.24324 65.3877 0.637611 66.8782 1.39315 68.1922C2.14869 69.5062 3.23849 70.5969 4.55189 71.3534C5.86528 72.11 7.35549 72.5055 8.8712 72.4998H72.1212C73.6369 72.5055 75.1271 72.11 76.4405 71.3534C77.7539 70.5969 78.8437 69.5062 79.5993 68.1922C80.3548 66.8782 80.7492 65.3877 80.7423 63.872C80.7355 62.3563 80.3276 60.8694 79.5603 59.5623ZM37.6212 29.3748C37.6212 28.6123 37.9241 27.8811 38.4633 27.3419C39.0024 26.8027 39.7337 26.4998 40.4962 26.4998C41.2587 26.4998 41.99 26.8027 42.5291 27.3419C43.0683 27.8811 43.3712 28.6123 43.3712 29.3748V43.7498C43.3712 44.5123 43.0683 45.2436 42.5291 45.7828C41.99 46.3219 41.2587 46.6248 40.4962 46.6248C39.7337 46.6248 39.0024 46.3219 38.4633 45.7828C37.9241 45.2436 37.6212 44.5123 37.6212 43.7498V29.3748ZM40.4962 60.9998C39.6433 60.9998 38.8095 60.7469 38.1003 60.273C37.3911 59.7992 36.8384 59.1257 36.512 58.3377C36.1856 57.5496 36.1002 56.6825 36.2666 55.846C36.433 55.0095 36.8437 54.2411 37.4468 53.6379C38.0499 53.0348 38.8183 52.6241 39.6549 52.4577C40.4914 52.2913 41.3585 52.3767 42.1465 52.7031C42.9345 53.0295 43.608 53.5822 44.0819 54.2914C44.5558 55.0006 44.8087 55.8344 44.8087 56.6873C44.8087 57.8311 44.3543 58.928 43.5456 59.7367C42.7368 60.5455 41.6399 60.9998 40.4962 60.9998Z" fill="white"/>
</svg>
