<svg width="38" height="38" viewBox="0 0 38 38" fill="none" xmlns="http://www.w3.org/2000/svg">
<circle cx="19" cy="19" r="19" fill="#FFF7E0"/>
<circle cx="19" cy="19" r="18.5" stroke="url(#paint0_linear_1_11)" stroke-opacity="0.1"/>
<path d="M12.8667 21.725V25.7417C12.8689 25.9436 12.9506 26.1364 13.0941 26.2784C13.2377 26.4204 13.4314 26.5 13.6333 26.5H18.3167V21.725H12.8667ZM19.6833 26.5H24.3667C24.5686 26.5 24.7623 26.4204 24.9059 26.2784C25.0494 26.1364 25.1311 25.9436 25.1333 25.7417V21.725H19.6833V26.5ZM25.75 14.9083H24.2167C24.3737 14.5893 24.4564 14.2389 24.4583 13.8833C24.4561 13.2505 24.2032 12.6443 23.7549 12.1976C23.3066 11.7508 22.6995 11.5 22.0667 11.5C21.4055 11.5314 20.7668 11.7491 20.2241 12.1281C19.6815 12.507 19.2571 13.0318 19 13.6417C18.7429 13.0318 18.3185 12.507 17.7759 12.1281C17.2332 11.7491 16.5945 11.5314 15.9333 11.5C15.3005 11.5 14.6934 11.7508 14.2451 12.1976C13.7968 12.6443 13.5439 13.2505 13.5417 13.8833C13.5436 14.2389 13.6263 14.5893 13.7833 14.9083H12.25C11.8333 14.9083 11.5 15.4 11.5 16V19.275C11.5 19.875 11.8333 20.3667 12.25 20.3667H18.3167V14.9083H19.6833V20.3667H25.75C26.1667 20.3667 26.5 19.875 26.5 19.275V16C26.5 15.4 26.1667 14.9083 25.75 14.9083ZM15.9333 14.9083C15.7915 14.9212 15.6486 14.9043 15.5137 14.8588C15.3787 14.8134 15.2548 14.7403 15.1496 14.6442C15.0445 14.5482 14.9606 14.4313 14.9031 14.301C14.8457 14.1707 14.816 14.0299 14.816 13.8875C14.816 13.7451 14.8457 13.6043 14.9031 13.474C14.9606 13.3437 15.0445 13.2268 15.1496 13.1308C15.2548 13.0347 15.3787 12.9616 15.5137 12.9162C15.6486 12.8707 15.7915 12.8538 15.9333 12.8667C17.1 12.8667 17.7583 14.0667 18.0833 14.9083H15.9333ZM22.0667 14.9083H19.9167C20.2417 14.075 20.9 12.8667 22.0667 12.8667C22.2085 12.8538 22.3514 12.8707 22.4863 12.9162C22.6213 12.9616 22.7452 13.0347 22.8504 13.1308C22.9555 13.2268 23.0394 13.3437 23.0969 13.474C23.1543 13.6043 23.184 13.7451 23.184 13.8875C23.184 14.0299 23.1543 14.1707 23.0969 14.301C23.0394 14.4313 22.9555 14.5482 22.8504 14.6442C22.7452 14.7403 22.6213 14.8134 22.4863 14.8588C22.3514 14.9043 22.2085 14.9212 22.0667 14.9083V14.9083Z" fill="url(#paint1_linear_1_11)"/>
<defs>
<linearGradient id="paint0_linear_1_11" x1="19" y1="0" x2="19" y2="38" gradientUnits="userSpaceOnUse">
<stop stop-color="#FFDD00"/>
<stop offset="1" stop-color="#FBB034"/>
</linearGradient>
<linearGradient id="paint1_linear_1_11" x1="19" y1="11.5" x2="19" y2="26.5" gradientUnits="userSpaceOnUse">
<stop stop-color="#FFDD00"/>
<stop offset="1" stop-color="#FBB034"/>
</linearGradient>
</defs>
</svg>
