<svg width="16" height="16" viewBox="0 0 16 16" fill="none" xmlns="http://www.w3.org/2000/svg">
<path d="M3.08724 5.91273C2.74252 5.53228 2.55731 5.03384 2.56994 4.5206C2.58258 4.00736 2.7921 3.51864 3.15512 3.15561C3.51815 2.79259 4.00687 2.58307 4.52011 2.57043C5.03335 2.55779 5.53179 2.74301 5.91224 3.08773L12.9122 10.0877C13.257 10.4682 13.4422 10.9666 13.4295 11.4799C13.4169 11.9931 13.2074 12.4818 12.8444 12.8448C12.4813 13.2079 11.9926 13.4174 11.4794 13.43C10.9661 13.4427 10.4677 13.2574 10.0872 12.9127L3.08724 5.91273Z" stroke="#0F0F0F" stroke-linecap="round" stroke-linejoin="round"/>
<path d="M10.0872 3.08773C10.4677 2.74301 10.9661 2.55779 11.4794 2.57043C11.9926 2.58307 12.4813 2.79259 12.8444 3.15561C13.2074 3.51864 13.4169 4.00736 13.4295 4.5206C13.4422 5.03384 13.257 5.53228 12.9122 5.91273L5.91224 12.9127C5.53179 13.2574 5.03335 13.4427 4.52011 13.43C4.00687 13.4174 3.51815 13.2079 3.15512 12.8448C2.7921 12.4818 2.58258 11.9931 2.56994 11.4799C2.55731 10.9666 2.74252 10.4682 3.08724 10.0877L10.0872 3.08773Z" stroke="#0F0F0F" stroke-linecap="round" stroke-linejoin="round"/>
<path opacity="0.5" d="M8 8.25C8.13807 8.25 8.25 8.13807 8.25 8C8.25 7.86193 8.13807 7.75 8 7.75C7.86193 7.75 7.75 7.86193 7.75 8C7.75 8.13807 7.86193 8.25 8 8.25Z" stroke="#0F0F0F" stroke-linecap="round" stroke-linejoin="round"/>
<path d="M8 8.625C8.34518 8.625 8.625 8.34518 8.625 8C8.625 7.65482 8.34518 7.375 8 7.375C7.65482 7.375 7.375 7.65482 7.375 8C7.375 8.34518 7.65482 8.625 8 8.625Z" fill="#0F0F0F"/>
</svg>
