<svg width="14" height="12" viewBox="0 0 14 12" fill="none" xmlns="http://www.w3.org/2000/svg">
<path d="M7.35634 11.2438L12.4188 6.18134C13.6626 4.93134 13.8438 2.88759 12.6688 1.58134C12.3742 1.25215 12.0155 0.986512 11.6146 0.800638C11.2138 0.614765 10.7793 0.512564 10.3377 0.50028C9.89607 0.487996 9.45656 0.565887 9.04604 0.729194C8.63552 0.892501 8.26261 1.13779 7.95009 1.45009L7.00009 2.40634L6.18134 1.58134C4.93134 0.337586 2.88759 0.156336 1.58134 1.33134C1.25215 1.62601 0.986512 1.98472 0.800638 2.38552C0.614765 2.78633 0.512564 3.22083 0.50028 3.66247C0.487996 4.10411 0.565887 4.54361 0.729194 4.95413C0.892501 5.36465 1.13779 5.73757 1.45009 6.05009L6.64384 11.2438C6.73863 11.3377 6.86666 11.3904 7.00009 11.3904C7.13351 11.3904 7.26154 11.3377 7.35634 11.2438V11.2438Z" stroke="#262626" stroke-linecap="round" stroke-linejoin="round"/>
</svg>
