<svg width="13" height="13" viewBox="0 0 13 13" fill="none" xmlns="http://www.w3.org/2000/svg">
<path d="M6.73438 0.90625C5.18132 0.909347 3.69277 1.52767 2.59459 2.62584C1.49642 3.72402 0.878097 5.21257 0.875 6.76562V11.7051C0.875 11.9491 0.97192 12.183 1.14444 12.3556C1.31696 12.5281 1.55094 12.625 1.79492 12.625H6.73438C8.28838 12.625 9.77873 12.0077 10.8776 10.9088C11.9764 9.80998 12.5938 8.31963 12.5938 6.76562C12.5938 5.21162 11.9764 3.72127 10.8776 2.62242C9.77873 1.52358 8.28838 0.90625 6.73438 0.90625ZM3.92188 7.70312C3.78281 7.70312 3.64687 7.66189 3.53124 7.58463C3.41561 7.50737 3.32549 7.39755 3.27227 7.26907C3.21905 7.14059 3.20513 6.99922 3.23226 6.86283C3.25939 6.72643 3.32636 6.60115 3.42469 6.50282C3.52302 6.40448 3.64831 6.33752 3.7847 6.31039C3.92109 6.28326 4.06247 6.29718 4.19095 6.3504C4.31943 6.40361 4.42924 6.49374 4.5065 6.60936C4.58376 6.72499 4.625 6.86094 4.625 7C4.625 7.18648 4.55092 7.36532 4.41906 7.49718C4.2872 7.62905 4.10836 7.70312 3.92188 7.70312ZM6.73438 7.70312C6.59531 7.70312 6.45937 7.66189 6.34374 7.58463C6.22811 7.50737 6.13799 7.39755 6.08477 7.26907C6.03155 7.14059 6.01763 6.99922 6.04476 6.86283C6.07189 6.72643 6.13886 6.60115 6.23719 6.50282C6.33552 6.40448 6.46081 6.33752 6.5972 6.31039C6.7336 6.28326 6.87497 6.29718 7.00345 6.3504C7.13193 6.40361 7.24174 6.49374 7.319 6.60936C7.39626 6.72499 7.4375 6.86094 7.4375 7C7.4375 7.18648 7.36342 7.36532 7.23156 7.49718C7.0997 7.62905 6.92086 7.70312 6.73438 7.70312ZM9.54688 7.70312C9.40781 7.70312 9.27187 7.66189 9.15624 7.58463C9.04061 7.50737 8.95049 7.39755 8.89727 7.26907C8.84405 7.14059 8.83013 6.99922 8.85726 6.86283C8.88439 6.72643 8.95136 6.60115 9.04969 6.50282C9.14802 6.40448 9.27331 6.33752 9.4097 6.31039C9.54609 6.28326 9.68747 6.29718 9.81595 6.3504C9.94443 6.40361 10.0542 6.49374 10.1315 6.60936C10.2088 6.72499 10.25 6.86094 10.25 7C10.25 7.18648 10.1759 7.36532 10.0441 7.49718C9.9122 7.62905 9.73336 7.70312 9.54688 7.70312Z" fill="#0F0F0F"/>
</svg>
