<svg width="30" height="18" viewBox="0 0 30 18" fill="none" xmlns="http://www.w3.org/2000/svg">
<path d="M3.761 17V5.086L11.673 17H14.571V0.187H11.673V12.101L3.784 0.187H0.863V17H3.761ZM17.2117 11.296C17.2117 14.838 19.7647 17.276 23.2837 17.276C26.8027 17.276 29.3557 14.838 29.3557 11.296C29.3557 7.754 26.8027 5.316 23.2837 5.316C19.7647 5.316 17.2117 7.754 17.2117 11.296ZM20.0177 11.296C20.0177 9.226 21.3517 7.823 23.2837 7.823C25.2157 7.823 26.5497 9.226 26.5497 11.296C26.5497 13.366 25.2157 14.769 23.2837 14.769C21.3517 14.769 20.0177 13.366 20.0177 11.296Z" fill="#50B47F"/>
<path d="M3.761 17V17.5H4.261V17H3.761ZM3.761 5.086L4.17752 4.80939L3.261 3.42928V5.086H3.761ZM11.673 17L11.2565 17.2766L11.4048 17.5H11.673V17ZM14.571 17V17.5H15.071V17H14.571ZM14.571 0.187H15.071V-0.313H14.571V0.187ZM11.673 0.187V-0.313H11.173V0.187H11.673ZM11.673 12.101L11.2561 12.377L12.173 13.7617V12.101H11.673ZM3.784 0.187L4.20089 -0.0890489L4.0526 -0.313H3.784V0.187ZM0.863 0.187V-0.313H0.363V0.187H0.863ZM0.863 17H0.363V17.5H0.863V17ZM4.261 17V5.086H3.261V17H4.261ZM3.34448 5.36261L11.2565 17.2766L12.0895 16.7234L4.17752 4.80939L3.34448 5.36261ZM11.673 17.5H14.571V16.5H11.673V17.5ZM15.071 17V0.187H14.071V17H15.071ZM14.571 -0.313H11.673V0.687H14.571V-0.313ZM11.173 0.187V12.101H12.173V0.187H11.173ZM12.0899 11.825L4.20089 -0.0890489L3.36711 0.463048L11.2561 12.377L12.0899 11.825ZM3.784 -0.313H0.863V0.687H3.784V-0.313ZM0.363 0.187V17H1.363V0.187H0.363ZM0.863 17.5H3.761V16.5H0.863V17.5ZM16.7117 11.296C16.7117 13.1915 17.3972 14.8188 18.5788 15.9721C19.7592 17.1242 21.4067 17.776 23.2837 17.776V16.776C21.6417 16.776 20.2531 16.2088 19.2773 15.2564C18.3027 14.3052 17.7117 12.9425 17.7117 11.296H16.7117ZM23.2837 17.776C25.1607 17.776 26.8081 17.1242 27.9885 15.9721C29.1702 14.8188 29.8557 13.1915 29.8557 11.296H28.8557C28.8557 12.9425 28.2647 14.3052 27.2901 15.2564C26.3142 16.2088 24.9257 16.776 23.2837 16.776V17.776ZM29.8557 11.296C29.8557 9.40053 29.1702 7.77319 27.9885 6.61993C26.8081 5.46784 25.1607 4.816 23.2837 4.816V5.816C24.9257 5.816 26.3142 6.38315 27.2901 7.33557C28.2647 8.28681 28.8557 9.64947 28.8557 11.296H29.8557ZM23.2837 4.816C21.4067 4.816 19.7592 5.46784 18.5788 6.61993C17.3972 7.77319 16.7117 9.40053 16.7117 11.296H17.7117C17.7117 9.64947 18.3027 8.28681 19.2773 7.33557C20.2531 6.38315 21.6417 5.816 23.2837 5.816V4.816ZM20.5177 11.296C20.5177 10.3692 20.8148 9.6299 21.2899 9.12636C21.7628 8.62506 22.4438 8.323 23.2837 8.323V7.323C22.1915 7.323 21.2396 7.72244 20.5625 8.44014C19.8875 9.1556 19.5177 10.1528 19.5177 11.296H20.5177ZM23.2837 8.323C24.1235 8.323 24.8046 8.62506 25.2775 9.12636C25.7525 9.6299 26.0497 10.3692 26.0497 11.296H27.0497C27.0497 10.1528 26.6798 9.1556 26.0049 8.44014C25.3278 7.72244 24.3758 7.323 23.2837 7.323V8.323ZM26.0497 11.296C26.0497 12.2228 25.7525 12.9621 25.2775 13.4656C24.8046 13.9669 24.1235 14.269 23.2837 14.269V15.269C24.3758 15.269 25.3278 14.8696 26.0049 14.1519C26.6798 13.4364 27.0497 12.4392 27.0497 11.296H26.0497ZM23.2837 14.269C22.4438 14.269 21.7628 13.9669 21.2899 13.4656C20.8148 12.9621 20.5177 12.2228 20.5177 11.296H19.5177C19.5177 12.4392 19.8875 13.4364 20.5625 14.1519C21.2396 14.8696 22.1915 15.269 23.2837 15.269V14.269Z" fill="black"/>
</svg>
