<svg width="46" height="46" viewBox="0 0 46 46" fill="none" xmlns="http://www.w3.org/2000/svg">
<g filter="url(#filter0_d_500_8401)">
<circle cx="23" cy="21" r="18" fill="#FFF1C7"/>
<circle cx="23" cy="21" r="17" stroke="white" stroke-width="2"/>
</g>
<path d="M28.0078 23.2812L25.2598 22.1093C25.118 22.0458 24.9623 22.0194 24.8075 22.0328C24.6527 22.0461 24.5038 22.0987 24.375 22.1855L22.9043 23.164C22.008 22.7287 21.2822 22.0071 20.8418 21.1132L21.8145 19.625C21.9007 19.496 21.9534 19.3475 21.9677 19.193C21.9821 19.0385 21.9576 18.8828 21.8965 18.7402L20.7188 15.9921C20.6366 15.8066 20.4974 15.652 20.3215 15.5509C20.1455 15.4497 19.9419 15.4073 19.7402 15.4296C18.949 15.5333 18.2223 15.9208 17.6953 16.52C17.1682 17.1192 16.8768 17.8894 16.875 18.6875C16.875 23.3398 20.6602 27.125 25.3125 27.125C26.1105 27.1232 26.8807 26.8317 27.48 26.3047C28.0792 25.7777 28.4667 25.051 28.5703 24.2597C28.5927 24.058 28.5502 23.8544 28.4491 23.6785C28.3479 23.5025 28.1934 23.3634 28.0078 23.2812Z" fill="url(#paint0_linear_500_8401)"/>
<defs>
<filter id="filter0_d_500_8401" x="0" y="0" width="46" height="46" filterUnits="userSpaceOnUse" color-interpolation-filters="sRGB">
<feFlood flood-opacity="0" result="BackgroundImageFix"/>
<feColorMatrix in="SourceAlpha" type="matrix" values="0 0 0 0 0 0 0 0 0 0 0 0 0 0 0 0 0 0 127 0" result="hardAlpha"/>
<feOffset dy="2"/>
<feGaussianBlur stdDeviation="2.5"/>
<feColorMatrix type="matrix" values="0 0 0 0 0 0 0 0 0 0 0 0 0 0 0 0 0 0 0.06 0"/>
<feBlend mode="normal" in2="BackgroundImageFix" result="effect1_dropShadow_500_8401"/>
<feBlend mode="normal" in="SourceGraphic" in2="effect1_dropShadow_500_8401" result="shape"/>
</filter>
<linearGradient id="paint0_linear_500_8401" x1="23.1156" y1="15.6627" x2="23.696" y2="27.9542" gradientUnits="userSpaceOnUse">
<stop stop-color="#FFC000"/>
<stop offset="1" stop-color="#FFA700"/>
</linearGradient>
</defs>
</svg>
