<svg width="46" height="46" viewBox="0 0 46 46" fill="none" xmlns="http://www.w3.org/2000/svg">
<g filter="url(#filter0_d_500_8407)">
<circle cx="23" cy="21" r="18" fill="#FFF1C7"/>
<circle cx="23" cy="21" r="17" stroke="white" stroke-width="2"/>
</g>
<path d="M22.7344 15.4062C21.1813 15.4093 19.6928 16.0277 18.5946 17.1258C17.4964 18.224 16.8781 19.7126 16.875 21.2656V26.2051C16.875 26.4491 16.9719 26.683 17.1444 26.8556C17.317 27.0281 17.5509 27.125 17.7949 27.125H22.7344C24.2884 27.125 25.7787 26.5077 26.8776 25.4088C27.9764 24.31 28.5938 22.8196 28.5938 21.2656C28.5938 19.7116 27.9764 18.2213 26.8776 17.1224C25.7787 16.0236 24.2884 15.4062 22.7344 15.4062ZM19.9219 22.2031C19.7828 22.2031 19.6469 22.1619 19.5312 22.0846C19.4156 22.0074 19.3255 21.8976 19.2723 21.7691C19.2191 21.6406 19.2051 21.4992 19.2323 21.3628C19.2594 21.2264 19.3264 21.1011 19.4247 21.0028C19.523 20.9045 19.6483 20.8375 19.7847 20.8104C19.9211 20.7833 20.0625 20.7972 20.1909 20.8504C20.3194 20.9036 20.4292 20.9937 20.5065 21.1094C20.5838 21.225 20.625 21.3609 20.625 21.5C20.625 21.6865 20.5509 21.8653 20.4191 21.9972C20.2872 22.129 20.1084 22.2031 19.9219 22.2031ZM22.7344 22.2031C22.5953 22.2031 22.4594 22.1619 22.3437 22.0846C22.2281 22.0074 22.138 21.8976 22.0848 21.7691C22.0316 21.6406 22.0176 21.4992 22.0448 21.3628C22.0719 21.2264 22.1389 21.1011 22.2372 21.0028C22.3355 20.9045 22.4608 20.8375 22.5972 20.8104C22.7336 20.7833 22.875 20.7972 23.0034 20.8504C23.1319 20.9036 23.2417 20.9937 23.319 21.1094C23.3963 21.225 23.4375 21.3609 23.4375 21.5C23.4375 21.6865 23.3634 21.8653 23.2316 21.9972C23.0997 22.129 22.9209 22.2031 22.7344 22.2031ZM25.5469 22.2031C25.4078 22.2031 25.2719 22.1619 25.1562 22.0846C25.0406 22.0074 24.9505 21.8976 24.8973 21.7691C24.8441 21.6406 24.8301 21.4992 24.8573 21.3628C24.8844 21.2264 24.9514 21.1011 25.0497 21.0028C25.148 20.9045 25.2733 20.8375 25.4097 20.8104C25.5461 20.7833 25.6875 20.7972 25.8159 20.8504C25.9444 20.9036 26.0542 20.9937 26.1315 21.1094C26.2088 21.225 26.25 21.3609 26.25 21.5C26.25 21.6865 26.1759 21.8653 26.0441 21.9972C25.9122 22.129 25.7334 22.2031 25.5469 22.2031Z" fill="url(#paint0_linear_500_8407)"/>
<defs>
<filter id="filter0_d_500_8407" x="0" y="0" width="46" height="46" filterUnits="userSpaceOnUse" color-interpolation-filters="sRGB">
<feFlood flood-opacity="0" result="BackgroundImageFix"/>
<feColorMatrix in="SourceAlpha" type="matrix" values="0 0 0 0 0 0 0 0 0 0 0 0 0 0 0 0 0 0 127 0" result="hardAlpha"/>
<feOffset dy="2"/>
<feGaussianBlur stdDeviation="2.5"/>
<feColorMatrix type="matrix" values="0 0 0 0 0 0 0 0 0 0 0 0 0 0 0 0 0 0 0.06 0"/>
<feBlend mode="normal" in2="BackgroundImageFix" result="effect1_dropShadow_500_8407"/>
<feBlend mode="normal" in="SourceGraphic" in2="effect1_dropShadow_500_8407" result="shape"/>
</filter>
<linearGradient id="paint0_linear_500_8407" x1="23.125" y1="15.6455" x2="23.7063" y2="27.9555" gradientUnits="userSpaceOnUse">
<stop stop-color="#FFC000"/>
<stop offset="1" stop-color="#FFA700"/>
</linearGradient>
</defs>
</svg>
