<svg width="24" height="22" viewBox="0 0 12 11" fill="none" xmlns="http://www.w3.org/2000/svg">
<path d="M6.46159 0.308473C6.38403 0.121994 6.2019 0.000488281 5.99993 0.000488281C5.79797 0.000488281 5.61583 0.121994 5.53827 0.308473L4.33304 3.2062L1.20469 3.457C1.00337 3.47314 0.831533 3.60881 0.769122 3.80089C0.706712 3.99298 0.765988 4.20374 0.919372 4.33513L3.30284 6.37683L2.57465 9.42956C2.52779 9.62601 2.60372 9.83137 2.76711 9.95008C2.93051 10.0688 3.14928 10.0775 3.32163 9.97227L5.99993 8.33638L8.67823 9.97227C8.85059 10.0775 9.06936 10.0688 9.23275 9.95008C9.39615 9.83137 9.47208 9.62601 9.42521 9.42956L8.69703 6.37683L11.0805 4.33513C11.2339 4.20374 11.2932 3.99298 11.2307 3.80089C11.1683 3.60881 10.9965 3.47314 10.7952 3.457L7.66683 3.2062L6.46159 0.308473Z" fill="#FFC000"/>
</svg>
