<svg width="32" height="14" viewBox="0 0 16 7" fill="none" xmlns="http://www.w3.org/2000/svg">
<path d="M14.1638 6.56557L11.2043 6.71503C11.0511 6.65397 10.9154 6.55587 10.8094 6.42953C10.7033 6.30318 10.6303 6.15252 10.5968 5.99103L10.2086 4.1324C9.2017 3.78932 6.77582 3.79161 5.77045 4.13915L5.40139 5.98359C5.36905 6.14681 5.29637 6.29934 5.18998 6.42728C5.08358 6.55521 4.94686 6.65448 4.79226 6.71603L1.83508 6.56557C0.618687 6.42728 0.568519 6.01314 0.6187 5.22269C0.672644 4.37297 1.03408 3.57196 1.63549 2.96928C5.14468 -0.539973 10.8544 -0.539785 14.3635 2.96921C14.9649 3.57189 15.3264 4.37289 15.3803 5.2226C15.4238 5.90692 15.3328 6.42953 14.1638 6.56557Z" fill="white"/>
</svg>
