<svg width="36" height="36" viewBox="0 0 18 18" fill="none" xmlns="http://www.w3.org/2000/svg">
<path fill-rule="evenodd" clip-rule="evenodd" d="M8.06234 0.666504C3.97773 0.666504 0.666504 3.97773 0.666504 8.06234C0.666504 12.1469 3.97773 15.4582 8.06234 15.4582C9.80427 15.4582 11.4055 14.856 12.6693 13.8484L15.9101 17.0892L17.0886 15.9107L13.8479 12.6699C14.8558 11.406 15.4582 9.80454 15.4582 8.06234C15.4582 3.97773 12.1469 0.666504 8.06234 0.666504ZM2.33317 8.06234C2.33317 4.89821 4.89821 2.33317 8.06234 2.33317C11.2265 2.33317 13.7915 4.89821 13.7915 8.06234C13.7915 11.2265 11.2265 13.7915 8.06234 13.7915C4.89821 13.7915 2.33317 11.2265 2.33317 8.06234Z" fill="#757575"/>
</svg>
