<svg width="32" height="36" viewBox="0 0 16 18" fill="none" xmlns="http://www.w3.org/2000/svg">
<path d="M15.2862 7.90629L2.12218 0.539104C1.90284 0.411195 1.65026 0.351777 1.3969 0.368482C1.14354 0.385188 0.900952 0.477253 0.700303 0.632854C0.495385 0.794532 0.346604 1.01665 0.275082 1.26768C0.20356 1.51871 0.212931 1.78589 0.301865 2.03129L2.49718 8.1641C2.51939 8.22525 2.55969 8.27819 2.61272 8.31587C2.66575 8.35355 2.729 8.37419 2.79405 8.37504H8.43468C8.59686 8.37247 8.75398 8.43152 8.87433 8.54027C8.99467 8.64902 9.06929 8.79937 9.08312 8.96098C9.08846 9.04628 9.07625 9.13177 9.04724 9.21217C9.01823 9.29257 8.97304 9.36616 8.91446 9.4284C8.85589 9.49063 8.78516 9.5402 8.70667 9.57402C8.62818 9.60785 8.54358 9.62521 8.45812 9.62504H2.79405C2.729 9.62589 2.66575 9.64653 2.61272 9.68422C2.55969 9.7219 2.51939 9.77483 2.49718 9.83598L0.301865 15.9688C0.235995 16.1577 0.216147 16.3596 0.243969 16.5578C0.271791 16.7559 0.346481 16.9446 0.461836 17.1081C0.577192 17.2715 0.729884 17.4051 0.907233 17.4978C1.08458 17.5904 1.28147 17.6394 1.48155 17.6407C1.69446 17.6397 1.90382 17.586 2.09093 17.4844L15.2862 10.0938C15.4796 9.98401 15.6403 9.82495 15.7522 9.63282C15.864 9.44069 15.9229 9.22235 15.9229 9.00004C15.9229 8.77773 15.864 8.55939 15.7522 8.36726C15.6403 8.17513 15.4796 8.01607 15.2862 7.90629V7.90629Z" fill="#0F0F0F"/>
</svg>
