

<svg width="162" height="164" viewBox="0 0 81 82" fill="none" xmlns="http://www.w3.org/2000/svg">
<path d="M75.6828 31.9438C74.3172 30.5422 72.9156 29.0688 72.3766 27.8109C71.8375 26.5531 71.8734 24.6844 71.8375 22.7797C71.8016 19.2938 71.7297 15.3047 68.9625 12.5375C66.1953 9.77031 62.2062 9.69844 58.7203 9.6625C56.8156 9.62656 54.875 9.59062 53.6891 9.12344C52.5031 8.65625 50.9578 7.18281 49.5562 5.81719C47.0766 3.44531 44.2375 0.75 40.5 0.75C36.7625 0.75 33.9234 3.44531 31.4438 5.81719C30.0422 7.18281 28.5688 8.58437 27.3109 9.12344C26.0531 9.6625 24.1844 9.62656 22.2797 9.6625C18.7938 9.69844 14.8047 9.77031 12.0375 12.5375C9.27031 15.3047 9.19844 19.2938 9.1625 22.7797C9.12656 24.6844 9.09062 26.625 8.62344 27.8109C8.15625 28.9969 6.68281 30.5422 5.31719 31.9438C2.94531 34.4234 0.25 37.2625 0.25 41C0.25 44.7375 2.94531 47.5766 5.31719 50.0562C6.68281 51.4578 8.08437 52.9312 8.62344 54.1891C9.1625 55.4469 9.12656 57.3156 9.1625 59.2203C9.19844 62.7062 9.27031 66.6953 12.0375 69.4625C14.8047 72.2297 18.7938 72.3016 22.2797 72.3375C24.1844 72.3734 26.125 72.4094 27.3109 72.8766C28.4969 73.3438 30.0422 74.8172 31.4438 76.1828C33.9234 78.5547 36.7625 81.25 40.5 81.25C44.2375 81.25 47.0766 78.5547 49.5562 76.1828C50.9578 74.8172 52.4312 73.4156 53.6891 72.8766C54.9469 72.3375 56.8156 72.3734 58.7203 72.3375C62.2062 72.3016 66.1953 72.2297 68.9625 69.4625C71.7297 66.6953 71.8016 62.7062 71.8375 59.2203C71.8734 57.3156 71.9094 55.375 72.3766 54.1891C72.8438 53.0031 74.3172 51.4578 75.6828 50.0562C78.0547 47.5766 80.75 44.7375 80.75 41C80.75 37.2625 78.0547 34.4234 75.6828 31.9438ZM58.2891 34.4594L37.2297 54.5844C36.6852 55.0965 35.9646 55.3796 35.2172 55.375C34.4807 55.3778 33.772 55.0943 33.2406 54.5844L22.7109 44.5219C22.4189 44.2671 22.1814 43.9558 22.0127 43.6069C21.844 43.258 21.7475 42.8785 21.7292 42.4914C21.7109 42.1042 21.7711 41.7173 21.9061 41.354C22.0411 40.9907 22.2481 40.6585 22.5148 40.3772C22.7815 40.096 23.1023 39.8716 23.458 39.7175C23.8136 39.5634 24.1967 39.4828 24.5843 39.4805C24.9719 39.4783 25.3559 39.5544 25.7133 39.7044C26.0707 39.8543 26.3941 40.075 26.6641 40.3531L35.2172 48.5109L54.3359 30.2906C54.895 29.8029 55.6209 29.5502 56.3619 29.5852C57.1029 29.6203 57.8017 29.9404 58.3122 30.4788C58.8227 31.0171 59.1053 31.7319 59.101 32.4737C59.0967 33.2156 58.8057 33.927 58.2891 34.4594Z" fill="white"/>

</svg>
