<svg width="12" height="14" viewBox="0 0 12 14" fill="none" xmlns="http://www.w3.org/2000/svg">
<path d="M10.6663 9.33317V4.99984C10.6663 2.6066 8.72624 0.666504 6.33301 0.666504H5.66634C3.27311 0.666504 1.33301 2.6066 1.33301 4.99984V9.33317" stroke="#545454" stroke-width="0.666667"/>
<path d="M11.333 8.6665L11.333 9.33317C11.333 11.1741 9.84062 12.6665 7.99967 12.6665L5.33301 12.6665" stroke="#545454" stroke-width="0.333333"/>
<path d="M8.66699 5.3335H9.33366C10.8064 5.3335 12.0003 6.5274 12.0003 8.00016C12.0003 9.47292 10.8064 10.6668 9.33366 10.6668H8.66699V5.3335Z" fill="#545454"/>
<path d="M4.66699 13.3335L4.66699 12.6668C4.66699 11.9304 5.26395 11.3335 6.00033 11.3335C6.7367 11.3335 7.33366 11.9304 7.33366 12.6668L7.33366 13.3335L4.66699 13.3335Z" fill="#545454"/>
<path d="M3.33301 5.3335H2.66634C1.19358 5.3335 -0.00032568 6.5274 -0.00032568 8.00016C-0.00032568 9.47292 1.19358 10.6668 2.66634 10.6668H3.33301V5.3335Z" fill="#545454"/>
</svg>
