<svg width="26" height="16" viewBox="0 0 26 16" fill="none" xmlns="http://www.w3.org/2000/svg">
<path d="M13.7761 3.27647C13.7761 3.06098 13.8617 2.85432 14.0141 2.70195C14.1665 2.54958 14.3731 2.46397 14.5886 2.46397L24.3386 2.46397C24.5541 2.46397 24.7608 2.54958 24.9131 2.70195C25.0655 2.85432 25.1511 3.06098 25.1511 3.27647C25.1511 3.49196 25.0655 3.69862 24.9131 3.851C24.7608 4.00337 24.5541 4.08897 24.3386 4.08897L14.5886 4.08897C14.3731 4.08897 14.1665 4.00337 14.0141 3.851C13.8617 3.69862 13.7761 3.49196 13.7761 3.27647ZM24.3386 7.33897L14.5886 7.33897C14.3731 7.33897 14.1665 7.42458 14.0141 7.57695C13.8617 7.72932 13.7761 7.93599 13.7761 8.15147C13.7761 8.36696 13.8617 8.57363 14.0141 8.726C14.1665 8.87837 14.3731 8.96397 14.5886 8.96397H24.3386C24.5541 8.96397 24.7608 8.87837 24.9131 8.726C25.0655 8.57363 25.1511 8.36696 25.1511 8.15147C25.1511 7.93599 25.0655 7.72932 24.9131 7.57695C24.7608 7.42458 24.5541 7.33897 24.3386 7.33897ZM24.3386 12.214H17.0261C16.8106 12.214 16.604 12.2996 16.4516 12.4519C16.2992 12.6043 16.2136 12.811 16.2136 13.0265C16.2136 13.242 16.2992 13.4486 16.4516 13.601C16.604 13.7534 16.8106 13.839 17.0261 13.839H24.3386C24.5541 13.839 24.7608 13.7534 24.9131 13.601C25.0655 13.4486 25.1511 13.242 25.1511 13.0265C25.1511 12.811 25.0655 12.6043 24.9131 12.4519C24.7608 12.2996 24.5541 12.214 24.3386 12.214ZM10.2316 9.58351C11.0427 8.96518 11.6395 8.10803 11.9378 7.13274C12.2362 6.15745 12.2212 5.11313 11.8949 4.14683C11.5686 3.18052 10.9474 2.34089 10.1188 1.74616C9.29026 1.15143 8.29603 0.831543 7.27612 0.831543C6.2562 0.831543 5.26197 1.15143 4.43341 1.74616C3.60484 2.34089 2.98367 3.18052 2.65736 4.14683C2.33105 5.11313 2.31602 6.15745 2.6144 7.13274C2.91278 8.10803 3.50953 8.96518 4.32065 9.58351C3.31056 10.0303 2.41482 10.7002 1.70066 11.5427C0.986505 12.3853 0.472492 13.3787 0.197209 14.4483C0.166648 14.5683 0.163562 14.6937 0.188181 14.815C0.2128 14.9363 0.26449 15.0505 0.339397 15.1491C0.414015 15.248 0.510768 15.3279 0.621889 15.3826C0.733009 15.4373 0.855401 15.4652 0.97924 15.464H13.573C13.6968 15.4652 13.8192 15.4373 13.9303 15.3826C14.0415 15.3279 14.1382 15.248 14.2128 15.1491C14.2877 15.0505 14.3394 14.9363 14.364 14.815C14.3887 14.6937 14.3856 14.5683 14.355 14.4483C14.0797 13.3787 13.5657 12.3853 12.8516 11.5427C12.1374 10.7002 11.2417 10.0303 10.2316 9.58351V9.58351Z" fill="#757575"/>
</svg>
