<svg width="38" height="38" viewBox="0 0 38 38" fill="none" xmlns="http://www.w3.org/2000/svg">
<circle cx="19" cy="19" r="19" fill="#FFF7E0"/>
<circle cx="19" cy="19" r="18.5" stroke="url(#paint0_linear_1_3)" stroke-opacity="0.1"/>
<path d="M25.875 14.625H13.375C13.2092 14.625 13.0503 14.5592 12.9331 14.4419C12.8158 14.3247 12.75 14.1658 12.75 14C12.75 13.8342 12.8158 13.6753 12.9331 13.5581C13.0503 13.4408 13.2092 13.375 13.375 13.375H24C24.1658 13.375 24.3247 13.3092 24.4419 13.1919C24.5592 13.0747 24.625 12.9158 24.625 12.75C24.625 12.5842 24.5592 12.4253 24.4419 12.3081C24.3247 12.1908 24.1658 12.125 24 12.125H13.375C12.8784 12.1271 12.4026 12.3253 12.0514 12.6764C11.7003 13.0276 11.5021 13.5034 11.5 14V24C11.5021 24.4966 11.7003 24.9724 12.0514 25.3236C12.4026 25.6747 12.8784 25.8729 13.375 25.875H25.875C26.2065 25.875 26.5245 25.7433 26.7589 25.5089C26.9933 25.2745 27.125 24.9565 27.125 24.625V15.875C27.125 15.5435 26.9933 15.2255 26.7589 14.9911C26.5245 14.7567 26.2065 14.625 25.875 14.625ZM23.0625 21.1875C22.8771 21.1875 22.6958 21.1325 22.5417 21.0295C22.3875 20.9265 22.2673 20.7801 22.1964 20.6088C22.1254 20.4375 22.1068 20.249 22.143 20.0671C22.1792 19.8852 22.2685 19.7182 22.3996 19.5871C22.5307 19.456 22.6977 19.3667 22.8796 19.3305C23.0615 19.2943 23.25 19.3129 23.4213 19.3839C23.5926 19.4548 23.739 19.575 23.842 19.7292C23.945 19.8833 24 20.0646 24 20.25C24 20.4986 23.9012 20.7371 23.7254 20.9129C23.5496 21.0887 23.3111 21.1875 23.0625 21.1875Z" fill="url(#paint1_linear_1_3)"/>
<defs>
<linearGradient id="paint0_linear_1_3" x1="19" y1="0" x2="19" y2="38" gradientUnits="userSpaceOnUse">
<stop stop-color="#FFDD00"/>
<stop offset="1" stop-color="#FBB034"/>
</linearGradient>
<linearGradient id="paint1_linear_1_3" x1="19.3125" y1="12.125" x2="19.3125" y2="25.875" gradientUnits="userSpaceOnUse">
<stop stop-color="#FFDD00"/>
<stop offset="1" stop-color="#FBB034"/>
</linearGradient>
</defs>
</svg>
