<svg width="36" height="18" viewBox="0 0 36 18" fill="none" xmlns="http://www.w3.org/2000/svg">
<path d="M5.911 10.376V17H8.855V10.376L14.513 0.187H11.316L8.027 6.305C7.728 6.857 7.636 7.133 7.429 7.547C7.245 7.133 7.084 6.765 6.831 6.305L3.519 0.187H0.23L5.911 10.376ZM18.8855 17.299C21.8525 17.299 23.9225 15.804 24.4055 13.32H21.8065C21.4845 14.401 20.4725 14.999 18.9315 14.999C17.0685 14.999 16.0105 13.987 15.8035 11.986L24.3595 11.963V11.112C24.3595 7.57 22.1975 5.293 18.7935 5.293C15.4585 5.293 13.1355 7.754 13.1355 11.319C13.1355 14.838 15.5045 17.299 18.8855 17.299ZM18.8165 7.593C20.4955 7.593 21.5765 8.628 21.5765 10.192H15.8725C16.1485 8.49 17.1605 7.593 18.8165 7.593ZM25.7313 13.55C25.7313 15.781 27.5253 17.299 30.3543 17.299C33.1603 17.299 35.1153 15.873 35.1153 13.573C35.1153 11.825 34.1493 10.951 32.2403 10.514L30.1933 10.031C29.2273 9.801 28.7213 9.387 28.7213 8.743C28.7213 7.892 29.3653 7.386 30.4693 7.386C31.5503 7.386 32.1943 8.007 32.2173 8.973H34.8853C34.8623 6.765 33.1373 5.293 30.5843 5.293C27.9623 5.293 26.0763 6.627 26.0763 8.858C26.0763 10.675 27.0653 11.641 29.1123 12.101L31.1593 12.584C32.1713 12.814 32.4703 13.228 32.4703 13.803C32.4703 14.631 31.7573 15.16 30.4463 15.16C29.1583 15.16 28.4223 14.539 28.3993 13.55H25.7313Z" fill="#E7685A"/>
<path d="M5.911 10.376H6.411V10.246L6.34771 10.1325L5.911 10.376ZM5.911 17H5.411V17.5H5.911V17ZM8.855 17V17.5H9.355V17H8.855ZM8.855 10.376L8.41788 10.1333L8.355 10.2465V10.376H8.855ZM14.513 0.187L14.9501 0.429738L15.3626 -0.313H14.513V0.187ZM11.316 0.187V-0.313H11.0171L10.8756 -0.0497539L11.316 0.187ZM8.027 6.305L8.46665 6.54314L8.46739 6.54175L8.027 6.305ZM7.429 7.547L6.97209 7.75007L7.40239 8.71825L7.87621 7.77061L7.429 7.547ZM6.831 6.305L6.39129 6.54304L6.39289 6.54596L6.831 6.305ZM3.519 0.187L3.9587 -0.0510352L3.81689 -0.313H3.519V0.187ZM0.23 0.187V-0.313H-0.621248L-0.206706 0.43049L0.23 0.187ZM5.411 10.376V17H6.411V10.376H5.411ZM5.911 17.5H8.855V16.5H5.911V17.5ZM9.355 17V10.376H8.355V17H9.355ZM9.29213 10.6187L14.9501 0.429738L14.0759 -0.0557377L8.41788 10.1333L9.29213 10.6187ZM14.513 -0.313H11.316V0.687H14.513V-0.313ZM10.8756 -0.0497539L7.58661 6.06825L8.46739 6.54175L11.7564 0.423754L10.8756 -0.0497539ZM7.58735 6.06686C7.43064 6.35618 7.32766 6.57429 7.23832 6.77085C7.14821 6.96909 7.07981 7.12734 6.98179 7.32339L7.87621 7.77061C7.98519 7.55266 8.06629 7.36591 8.14868 7.18465C8.23184 7.00171 8.32436 6.80582 8.46665 6.54314L7.58735 6.06686ZM7.88591 7.34393C7.70288 6.93212 7.53382 6.54533 7.26911 6.06404L6.39289 6.54596C6.63418 6.98467 6.78712 7.33388 6.97209 7.75007L7.88591 7.34393ZM7.2707 6.06696L3.9587 -0.0510352L3.0793 0.425035L6.3913 6.54303L7.2707 6.06696ZM3.519 -0.313H0.23V0.687H3.519V-0.313ZM-0.206706 0.43049L5.47429 10.6195L6.34771 10.1325L0.666706 -0.0564909L-0.206706 0.43049ZM24.4055 13.32L24.8963 13.4154L25.0121 12.82H24.4055V13.32ZM21.8065 13.32V12.82H21.4337L21.3273 13.1773L21.8065 13.32ZM15.8035 11.986L15.8022 11.486L15.2493 11.4875L15.3062 12.0374L15.8035 11.986ZM24.3595 11.963L24.3609 12.463L24.8595 12.4617V11.963H24.3595ZM21.5765 10.192V10.692H22.0765V10.192H21.5765ZM15.8725 10.192L15.379 10.112L15.2849 10.692H15.8725V10.192ZM18.8855 17.799C20.4513 17.799 21.8189 17.4043 22.8695 16.6465C23.9253 15.885 24.6315 14.7774 24.8963 13.4154L23.9147 13.2246C23.6965 14.3466 23.1262 15.2285 22.2845 15.8355C21.4377 16.4462 20.2867 16.799 18.8855 16.799V17.799ZM24.4055 12.82H21.8065V13.82H24.4055V12.82ZM21.3273 13.1773C21.0927 13.9648 20.3501 14.499 18.9315 14.499V15.499C20.595 15.499 21.8763 14.8372 22.2857 13.4627L21.3273 13.1773ZM18.9315 14.499C18.0914 14.499 17.4991 14.2728 17.0931 13.8825C16.6823 13.4875 16.3968 12.8615 16.3009 11.9346L15.3062 12.0374C15.4173 13.1115 15.7643 13.992 16.4 14.6033C17.0405 15.2192 17.9087 15.499 18.9315 15.499V14.499ZM15.8049 12.486L24.3609 12.463L24.3582 11.463L15.8022 11.486L15.8049 12.486ZM24.8595 11.963V11.112H23.8595V11.963H24.8595ZM24.8595 11.112C24.8595 9.23933 24.2865 7.65182 23.2147 6.52901C22.1405 5.4037 20.6108 4.793 18.7935 4.793V5.793C20.3803 5.793 21.6335 6.3208 22.4913 7.21949C23.3516 8.12068 23.8595 9.44267 23.8595 11.112H24.8595ZM18.7935 4.793C16.9976 4.793 15.4481 5.4585 14.3496 6.6266C13.2533 7.79242 12.6355 9.42703 12.6355 11.319H13.6355C13.6355 9.64597 14.1792 8.26758 15.0781 7.31165C15.9749 6.358 17.2544 5.793 18.7935 5.793V4.793ZM12.6355 11.319C12.6355 13.1924 13.2677 14.8165 14.3823 15.9752C15.4982 17.1354 17.0691 17.799 18.8855 17.799V16.799C17.3209 16.799 16.0168 16.2321 15.103 15.282C14.1878 14.3305 13.6355 12.9646 13.6355 11.319H12.6355ZM18.8165 8.093C19.5531 8.093 20.1119 8.31855 20.4825 8.6692C20.8506 9.01743 21.0765 9.52959 21.0765 10.192H22.0765C22.0765 9.29041 21.762 8.50307 21.1698 7.94279C20.5802 7.38495 19.7589 7.093 18.8165 7.093V8.093ZM21.5765 9.692H15.8725V10.692H21.5765V9.692ZM16.3661 10.272C16.4911 9.50117 16.7728 8.96941 17.1581 8.62891C17.5409 8.29061 18.0804 8.093 18.8165 8.093V7.093C17.8967 7.093 17.1021 7.34389 16.4959 7.87959C15.8922 8.41309 15.53 9.18083 15.379 10.112L16.3661 10.272ZM25.7313 13.55V13.05H25.2313V13.55H25.7313ZM32.2402 10.514L32.1254 11.0006L32.1287 11.0014L32.2402 10.514ZM30.1933 10.031L30.0774 10.5174L30.0784 10.5176L30.1933 10.031ZM32.2173 8.973L31.7174 8.9849L31.729 9.473H32.2173V8.973ZM34.8853 8.973V9.473H35.3905L35.3852 8.96779L34.8853 8.973ZM29.1122 12.101L29.2271 11.6143L29.2219 11.6132L29.1122 12.101ZM31.1593 12.584L31.0444 13.0707L31.0484 13.0716L31.1593 12.584ZM28.3993 13.55L28.8991 13.5384L28.8878 13.05H28.3993V13.55ZM25.2313 13.55C25.2313 14.8108 25.7435 15.8915 26.6647 16.6476C27.577 17.3965 28.8542 17.799 30.3542 17.799V16.799C29.0253 16.799 27.991 16.4425 27.2991 15.8746C26.616 15.314 26.2313 14.5202 26.2313 13.55H25.2313ZM30.3542 17.799C31.8362 17.799 33.1427 17.423 34.0913 16.6952C35.0525 15.9579 35.6152 14.8806 35.6152 13.573H34.6152C34.6152 14.5654 34.2005 15.3511 33.4827 15.9018C32.7523 16.462 31.6783 16.799 30.3542 16.799V17.799ZM35.6152 13.573C35.6152 12.5997 35.3424 11.8078 34.7513 11.2025C34.1752 10.6126 33.3492 10.2549 32.3518 10.0266L32.1287 11.0014C33.0403 11.2101 33.6518 11.5079 34.0359 11.9012C34.4051 12.2792 34.6152 12.7983 34.6152 13.573H35.6152ZM32.3551 10.0274L30.3081 9.54436L30.0784 10.5176L32.1254 11.0006L32.3551 10.0274ZM30.3091 9.5446C29.8629 9.43836 29.5825 9.3021 29.4211 9.16324C29.2789 9.04091 29.2213 8.91251 29.2213 8.743H28.2213C28.2213 9.21749 28.4166 9.61809 28.7689 9.92126C29.102 10.2079 29.5576 10.3936 30.0774 10.5174L30.3091 9.5446ZM29.2213 8.743C29.2213 8.45678 29.3224 8.26919 29.4885 8.13985C29.6709 7.99774 29.9856 7.886 30.4692 7.886V6.886C29.8489 6.886 29.2896 7.02726 28.874 7.3509C28.4421 7.68731 28.2213 8.17822 28.2213 8.743H29.2213ZM30.4692 7.886C30.9148 7.886 31.2146 8.0127 31.4009 8.18465C31.5843 8.35397 31.7086 8.61372 31.7174 8.9849L32.7171 8.9611C32.7029 8.36627 32.4937 7.83253 32.0791 7.44985C31.6674 7.0698 31.1047 6.886 30.4692 6.886V7.886ZM32.2173 9.473H34.8853V8.473H32.2173V9.473ZM35.3852 8.96779C35.3723 7.72571 34.8761 6.66677 34.0084 5.92496C33.1471 5.18856 31.9546 4.793 30.5842 4.793V5.793C31.7669 5.793 32.7134 6.13344 33.3586 6.68504C33.9974 7.23122 34.3752 8.01229 34.3853 8.97821L35.3852 8.96779ZM30.5842 4.793C29.1945 4.793 27.9513 5.14598 27.0429 5.84198C26.1215 6.54798 25.5763 7.58531 25.5763 8.858H26.5763C26.5763 7.89969 26.974 7.15452 27.6511 6.63577C28.3412 6.10702 29.352 5.793 30.5842 5.793V4.793ZM25.5763 8.858C25.5763 9.86336 25.8533 10.694 26.4653 11.3339C27.0643 11.9604 27.9318 12.3482 29.0026 12.5888L29.2219 11.6132C28.2457 11.3938 27.5952 11.0686 27.188 10.6428C26.7937 10.2305 26.5763 9.66964 26.5763 8.858H25.5763ZM28.9974 12.5876L31.0444 13.0706L31.2741 12.0974L29.2271 11.6144L28.9974 12.5876ZM31.0484 13.0716C31.5129 13.1771 31.7334 13.3088 31.8382 13.4152C31.9246 13.5028 31.9703 13.6107 31.9703 13.803H32.9702C32.9702 13.4203 32.8664 13.0337 32.5503 12.7131C32.2526 12.4112 31.8176 12.2209 31.2701 12.0964L31.0484 13.0716ZM31.9703 13.803C31.9703 14.0522 31.8732 14.2376 31.6662 14.3803C31.4376 14.5378 31.0444 14.66 30.4463 14.66V15.66C31.1591 15.66 31.7779 15.5177 32.2336 15.2037C32.7108 14.8749 32.9702 14.3818 32.9702 13.803H31.9703ZM30.4463 14.66C29.8767 14.66 29.4938 14.5223 29.2611 14.3358C29.0404 14.1588 28.9076 13.9013 28.8991 13.5384L27.8994 13.5616C27.9139 14.1877 28.1606 14.7352 28.6356 15.116C29.0987 15.4872 29.7278 15.66 30.4463 15.66V14.66ZM28.3993 13.05H25.7313V14.05H28.3993V13.05Z" fill="black"/>
</svg>
